  0
SECTION
  2
BLOCKS
  0
ENDSEC
  0
SECTION
  2
ENTITIES
  0
LINE
  8
0
 10
96.196
 20
0.0096283
 11
96.3902
 21
0.0384216
  0
LINE
  8
0
 10
96.3902
 20
0.0384216
 11
96.5806
 21
0.0861053
  0
LINE
  8
0
 10
96.5806
 20
0.0861053
 11
96.7654
 21
0.152237
  0
LINE
  8
0
 10
96.7654
 20
0.152237
 11
96.9428
 21
0.236145
  0
LINE
  8
0
 10
96.9428
 20
0.236145
 11
97.1111
 21
0.337051
  0
LINE
  8
0
 10
97.1111
 20
0.337051
 11
97.2688
 21
0.453964
  0
LINE
  8
0
 10
97.2688
 20
0.453964
 11
97.4142
 21
0.585785
  0
LINE
  8
0
 10
97.4142
 20
0.585785
 11
97.546
 21
0.731201
  0
LINE
  8
0
 10
97.546
 20
0.731201
 11
97.6629
 21
0.888855
  0
LINE
  8
0
 10
97.6629
 20
0.888855
 11
97.7638
 21
1.05721
  0
LINE
  8
0
 10
97.7638
 20
1.05721
 11
97.8477
 21
1.23462
  0
LINE
  8
0
 10
97.8477
 20
1.23462
 11
97.9139
 21
1.41942
  0
LINE
  8
0
 10
97.9139
 20
1.41942
 11
97.9616
 21
1.60982
  0
LINE
  8
0
 10
97.9616
 20
1.60982
 11
97.9904
 21
1.80396
  0
LINE
  8
0
 10
97.9904
 20
1.80396
 11
98
 21
2
  0
LINE
  8
0
 10
98
 20
2
 11
98
 21
28
  0
LINE
  8
0
 10
98
 20
28
 11
97.9904
 21
28.196
  0
LINE
  8
0
 10
97.9904
 20
28.196
 11
97.9616
 21
28.3902
  0
LINE
  8
0
 10
97.9616
 20
28.3902
 11
97.9139
 21
28.5806
  0
LINE
  8
0
 10
97.9139
 20
28.5806
 11
97.8477
 21
28.7654
  0
LINE
  8
0
 10
97.8477
 20
28.7654
 11
97.7638
 21
28.9428
  0
LINE
  8
0
 10
97.7638
 20
28.9428
 11
97.6629
 21
29.1111
  0
LINE
  8
0
 10
97.6629
 20
29.1111
 11
97.546
 21
29.2688
  0
LINE
  8
0
 10
97.546
 20
29.2688
 11
97.4142
 21
29.4142
  0
LINE
  8
0
 10
97.4142
 20
29.4142
 11
97.2688
 21
29.546
  0
LINE
  8
0
 10
97.2688
 20
29.546
 11
97.1111
 21
29.6629
  0
LINE
  8
0
 10
97.1111
 20
29.6629
 11
96.9428
 21
29.7638
  0
LINE
  8
0
 10
96.9428
 20
29.7638
 11
96.7654
 21
29.8477
  0
LINE
  8
0
 10
96.7654
 20
29.8477
 11
96.5806
 21
29.9139
  0
LINE
  8
0
 10
96.5806
 20
29.9139
 11
96.3902
 21
29.9616
  0
LINE
  8
0
 10
96.3902
 20
29.9616
 11
96.196
 21
29.9904
  0
LINE
  8
0
 10
96.196
 20
29.9904
 11
96
 21
30
  0
LINE
  8
0
 10
96
 20
30
 11
2
 21
30
  0
LINE
  8
0
 10
2
 20
30
 11
1.80396
 21
29.9904
  0
LINE
  8
0
 10
1.80396
 20
29.9904
 11
1.60982
 21
29.9616
  0
LINE
  8
0
 10
1.60982
 20
29.9616
 11
1.41942
 21
29.9139
  0
LINE
  8
0
 10
1.41942
 20
29.9139
 11
1.23462
 21
29.8477
  0
LINE
  8
0
 10
1.23462
 20
29.8477
 11
1.05721
 21
29.7638
  0
LINE
  8
0
 10
1.05721
 20
29.7638
 11
0.888855
 21
29.6629
  0
LINE
  8
0
 10
0.888855
 20
29.6629
 11
0.731201
 21
29.546
  0
LINE
  8
0
 10
0.731201
 20
29.546
 11
0.585785
 21
29.4142
  0
LINE
  8
0
 10
0.585785
 20
29.4142
 11
0.453964
 21
29.2688
  0
LINE
  8
0
 10
0.453964
 20
29.2688
 11
0.337051
 21
29.1111
  0
LINE
  8
0
 10
0.337051
 20
29.1111
 11
0.236145
 21
28.9428
  0
LINE
  8
0
 10
0.236145
 20
28.9428
 11
0.152237
 21
28.7654
  0
LINE
  8
0
 10
0.152237
 20
28.7654
 11
0.0861053
 21
28.5806
  0
LINE
  8
0
 10
0.0861053
 20
28.5806
 11
0.0384216
 21
28.3902
  0
LINE
  8
0
 10
0.0384216
 20
28.3902
 11
0.0096283
 21
28.196
  0
LINE
  8
0
 10
0.0096283
 20
28.196
 11
0
 21
28
  0
LINE
  8
0
 10
0
 20
28
 11
0
 21
2
  0
LINE
  8
0
 10
0
 20
2
 11
0.0157623
 21
1.74933
  0
LINE
  8
0
 10
0.0157623
 20
1.74933
 11
0.0628204
 21
1.50261
  0
LINE
  8
0
 10
0.0628204
 20
1.50261
 11
0.140442
 21
1.26375
  0
LINE
  8
0
 10
0.140442
 20
1.26375
 11
0.247375
 21
1.03648
  0
LINE
  8
0
 10
0.247375
 20
1.03648
 11
0.381958
 21
0.824417
  0
LINE
  8
0
 10
0.381958
 20
0.824417
 11
0.542053
 21
0.630905
  0
LINE
  8
0
 10
0.542053
 20
0.630905
 11
0.725143
 21
0.458969
  0
LINE
  8
0
 10
0.725143
 20
0.458969
 11
0.928345
 21
0.31134
  0
LINE
  8
0
 10
0.928345
 20
0.31134
 11
1.14844
 21
0.190338
  0
LINE
  8
0
 10
1.14844
 20
0.190338
 11
1.38196
 21
0.0978851
  0
LINE
  8
0
 10
1.38196
 20
0.0978851
 11
1.62523
 21
0.0354156
  0
LINE
  8
0
 10
1.62523
 20
0.0354156
 11
1.8744
 21
0.00393677
  0
LINE
  8
0
 10
1.8744
 20
0.00393677
 11
96
 21
0
  0
LINE
  8
0
 10
96
 20
0
 11
96.196
 21
0.0096283
  0
LINE
  8
0
 10
69.6423
 20
8.19212
 11
68.793
 21
8.31812
  0
LINE
  8
0
 10
68.793
 20
8.31812
 11
67.96
 21
8.52676
  0
LINE
  8
0
 10
67.96
 20
8.52676
 11
67.1515
 21
8.81604
  0
LINE
  8
0
 10
67.1515
 20
8.81604
 11
66.3753
 21
9.18318
  0
LINE
  8
0
 10
66.3753
 20
9.18318
 11
65.6387
 21
9.62463
  0
LINE
  8
0
 10
65.6387
 20
9.62463
 11
64.9491
 21
10.1362
  0
LINE
  8
0
 10
64.9491
 20
10.1362
 11
64.3128
 21
10.7128
  0
LINE
  8
0
 10
64.3128
 20
10.7128
 11
63.7361
 21
11.349
  0
LINE
  8
0
 10
63.7361
 20
11.349
 11
63.2246
 21
12.0388
  0
LINE
  8
0
 10
63.2246
 20
12.0388
 11
62.7832
 21
12.7753
  0
LINE
  8
0
 10
62.7832
 20
12.7753
 11
62.416
 21
13.5515
  0
LINE
  8
0
 10
62.416
 20
13.5515
 11
62.1268
 21
14.36
  0
LINE
  8
0
 10
62.1268
 20
14.36
 11
61.9181
 21
15.1929
  0
LINE
  8
0
 10
61.9181
 20
15.1929
 11
61.7921
 21
16.0423
  0
LINE
  8
0
 10
61.7921
 20
16.0423
 11
61.75
 21
16.9
  0
LINE
  8
0
 10
61.75
 20
16.9
 11
61.7921
 21
17.7576
  0
LINE
  8
0
 10
61.7921
 20
17.7576
 11
61.9181
 21
18.607
  0
LINE
  8
0
 10
61.9181
 20
18.607
 11
62.1268
 21
19.44
  0
LINE
  8
0
 10
62.1268
 20
19.44
 11
62.416
 21
20.2485
  0
LINE
  8
0
 10
62.416
 20
20.2485
 11
62.7832
 21
21.0247
  0
LINE
  8
0
 10
62.7832
 20
21.0247
 11
63.2246
 21
21.7612
  0
LINE
  8
0
 10
63.2246
 20
21.7612
 11
63.7361
 21
22.4509
  0
LINE
  8
0
 10
63.7361
 20
22.4509
 11
64.3128
 21
23.0872
  0
LINE
  8
0
 10
64.3128
 20
23.0872
 11
64.9491
 21
23.6638
  0
LINE
  8
0
 10
64.9491
 20
23.6638
 11
65.6387
 21
24.1754
  0
LINE
  8
0
 10
65.6387
 20
24.1754
 11
66.3753
 21
24.6168
  0
LINE
  8
0
 10
66.3753
 20
24.6168
 11
67.1515
 21
24.9839
  0
LINE
  8
0
 10
67.1515
 20
24.9839
 11
67.96
 21
25.2732
  0
LINE
  8
0
 10
67.96
 20
25.2732
 11
68.793
 21
25.4819
  0
LINE
  8
0
 10
68.793
 20
25.4819
 11
69.6423
 21
25.6079
  0
LINE
  8
0
 10
69.6423
 20
25.6079
 11
70.5
 21
25.65
  0
LINE
  8
0
 10
70.5
 20
25.65
 11
71.3576
 21
25.6079
  0
LINE
  8
0
 10
71.3576
 20
25.6079
 11
72.207
 21
25.4819
  0
LINE
  8
0
 10
72.207
 20
25.4819
 11
73.04
 21
25.2732
  0
LINE
  8
0
 10
73.04
 20
25.2732
 11
73.8485
 21
24.9839
  0
LINE
  8
0
 10
73.8485
 20
24.9839
 11
74.6247
 21
24.6168
  0
LINE
  8
0
 10
74.6247
 20
24.6168
 11
75.3612
 21
24.1754
  0
LINE
  8
0
 10
75.3612
 20
24.1754
 11
76.0509
 21
23.6638
  0
LINE
  8
0
 10
76.0509
 20
23.6638
 11
76.6872
 21
23.0872
  0
LINE
  8
0
 10
76.6872
 20
23.0872
 11
77.2638
 21
22.4509
  0
LINE
  8
0
 10
77.2638
 20
22.4509
 11
77.7753
 21
21.7612
  0
LINE
  8
0
 10
77.7753
 20
21.7612
 11
78.2168
 21
21.0247
  0
LINE
  8
0
 10
78.2168
 20
21.0247
 11
78.5839
 21
20.2485
  0
LINE
  8
0
 10
78.5839
 20
20.2485
 11
78.8732
 21
19.44
  0
LINE
  8
0
 10
78.8732
 20
19.44
 11
79.0819
 21
18.607
  0
LINE
  8
0
 10
79.0819
 20
18.607
 11
79.2079
 21
17.7576
  0
LINE
  8
0
 10
79.2079
 20
17.7576
 11
79.25
 21
16.9
  0
LINE
  8
0
 10
79.25
 20
16.9
 11
79.2079
 21
16.0423
  0
LINE
  8
0
 10
79.2079
 20
16.0423
 11
79.0819
 21
15.1929
  0
LINE
  8
0
 10
79.0819
 20
15.1929
 11
78.8732
 21
14.36
  0
LINE
  8
0
 10
78.8732
 20
14.36
 11
78.5839
 21
13.5515
  0
LINE
  8
0
 10
78.5839
 20
13.5515
 11
78.2168
 21
12.7753
  0
LINE
  8
0
 10
78.2168
 20
12.7753
 11
77.7753
 21
12.0388
  0
LINE
  8
0
 10
77.7753
 20
12.0388
 11
77.2638
 21
11.349
  0
LINE
  8
0
 10
77.2638
 20
11.349
 11
76.6872
 21
10.7128
  0
LINE
  8
0
 10
76.6872
 20
10.7128
 11
76.0509
 21
10.1362
  0
LINE
  8
0
 10
76.0509
 20
10.1362
 11
75.3612
 21
9.62463
  0
LINE
  8
0
 10
75.3612
 20
9.62463
 11
74.6247
 21
9.18318
  0
LINE
  8
0
 10
74.6247
 20
9.18318
 11
73.8485
 21
8.81604
  0
LINE
  8
0
 10
73.8485
 20
8.81604
 11
73.04
 21
8.52676
  0
LINE
  8
0
 10
73.04
 20
8.52676
 11
72.207
 21
8.31812
  0
LINE
  8
0
 10
72.207
 20
8.31812
 11
71.3576
 21
8.19212
  0
LINE
  8
0
 10
71.3576
 20
8.19212
 11
70.5
 21
8.14999
  0
LINE
  8
0
 10
70.5
 20
8.14999
 11
69.6423
 21
8.19212
  0
LINE
  8
0
 10
48.9423
 20
8.19212
 11
48.093
 21
8.31812
  0
LINE
  8
0
 10
48.093
 20
8.31812
 11
47.26
 21
8.52676
  0
LINE
  8
0
 10
47.26
 20
8.52676
 11
46.4515
 21
8.81604
  0
LINE
  8
0
 10
46.4515
 20
8.81604
 11
45.6753
 21
9.18318
  0
LINE
  8
0
 10
45.6753
 20
9.18318
 11
44.9388
 21
9.62463
  0
LINE
  8
0
 10
44.9388
 20
9.62463
 11
44.2491
 21
10.1362
  0
LINE
  8
0
 10
44.2491
 20
10.1362
 11
43.6128
 21
10.7128
  0
LINE
  8
0
 10
43.6128
 20
10.7128
 11
43.0361
 21
11.349
  0
LINE
  8
0
 10
43.0361
 20
11.349
 11
42.5246
 21
12.0388
  0
LINE
  8
0
 10
42.5246
 20
12.0388
 11
42.0832
 21
12.7753
  0
LINE
  8
0
 10
42.0832
 20
12.7753
 11
41.716
 21
13.5515
  0
LINE
  8
0
 10
41.716
 20
13.5515
 11
41.4268
 21
14.36
  0
LINE
  8
0
 10
41.4268
 20
14.36
 11
41.2181
 21
15.1929
  0
LINE
  8
0
 10
41.2181
 20
15.1929
 11
41.0921
 21
16.0423
  0
LINE
  8
0
 10
41.0921
 20
16.0423
 11
41.05
 21
16.9
  0
LINE
  8
0
 10
41.05
 20
16.9
 11
41.0921
 21
17.7576
  0
LINE
  8
0
 10
41.0921
 20
17.7576
 11
41.2181
 21
18.607
  0
LINE
  8
0
 10
41.2181
 20
18.607
 11
41.4268
 21
19.44
  0
LINE
  8
0
 10
41.4268
 20
19.44
 11
41.716
 21
20.2485
  0
LINE
  8
0
 10
41.716
 20
20.2485
 11
42.0832
 21
21.0247
  0
LINE
  8
0
 10
42.0832
 20
21.0247
 11
42.5246
 21
21.7612
  0
LINE
  8
0
 10
42.5246
 20
21.7612
 11
43.0361
 21
22.4509
  0
LINE
  8
0
 10
43.0361
 20
22.4509
 11
43.6128
 21
23.0872
  0
LINE
  8
0
 10
43.6128
 20
23.0872
 11
44.2491
 21
23.6638
  0
LINE
  8
0
 10
44.2491
 20
23.6638
 11
44.9388
 21
24.1754
  0
LINE
  8
0
 10
44.9388
 20
24.1754
 11
45.6753
 21
24.6168
  0
LINE
  8
0
 10
45.6753
 20
24.6168
 11
46.4515
 21
24.9839
  0
LINE
  8
0
 10
46.4515
 20
24.9839
 11
47.26
 21
25.2732
  0
LINE
  8
0
 10
47.26
 20
25.2732
 11
48.093
 21
25.4819
  0
LINE
  8
0
 10
48.093
 20
25.4819
 11
48.9423
 21
25.6079
  0
LINE
  8
0
 10
48.9423
 20
25.6079
 11
49.8
 21
25.65
  0
LINE
  8
0
 10
49.8
 20
25.65
 11
50.6576
 21
25.6079
  0
LINE
  8
0
 10
50.6576
 20
25.6079
 11
51.507
 21
25.4819
  0
LINE
  8
0
 10
51.507
 20
25.4819
 11
52.34
 21
25.2732
  0
LINE
  8
0
 10
52.34
 20
25.2732
 11
53.1485
 21
24.9839
  0
LINE
  8
0
 10
53.1485
 20
24.9839
 11
53.9247
 21
24.6168
  0
LINE
  8
0
 10
53.9247
 20
24.6168
 11
54.6612
 21
24.1754
  0
LINE
  8
0
 10
54.6612
 20
24.1754
 11
55.3509
 21
23.6638
  0
LINE
  8
0
 10
55.3509
 20
23.6638
 11
55.9872
 21
23.0872
  0
LINE
  8
0
 10
55.9872
 20
23.0872
 11
56.5638
 21
22.4509
  0
LINE
  8
0
 10
56.5638
 20
22.4509
 11
57.0753
 21
21.7612
  0
LINE
  8
0
 10
57.0753
 20
21.7612
 11
57.5168
 21
21.0247
  0
LINE
  8
0
 10
57.5168
 20
21.0247
 11
57.8839
 21
20.2485
  0
LINE
  8
0
 10
57.8839
 20
20.2485
 11
58.1732
 21
19.44
  0
LINE
  8
0
 10
58.1732
 20
19.44
 11
58.3819
 21
18.607
  0
LINE
  8
0
 10
58.3819
 20
18.607
 11
58.5079
 21
17.7576
  0
LINE
  8
0
 10
58.5079
 20
17.7576
 11
58.55
 21
16.9
  0
LINE
  8
0
 10
58.55
 20
16.9
 11
58.5079
 21
16.0423
  0
LINE
  8
0
 10
58.5079
 20
16.0423
 11
58.3819
 21
15.1929
  0
LINE
  8
0
 10
58.3819
 20
15.1929
 11
58.1732
 21
14.36
  0
LINE
  8
0
 10
58.1732
 20
14.36
 11
57.8839
 21
13.5515
  0
LINE
  8
0
 10
57.8839
 20
13.5515
 11
57.5168
 21
12.7753
  0
LINE
  8
0
 10
57.5168
 20
12.7753
 11
57.0753
 21
12.0388
  0
LINE
  8
0
 10
57.0753
 20
12.0388
 11
56.5638
 21
11.349
  0
LINE
  8
0
 10
56.5638
 20
11.349
 11
55.9872
 21
10.7128
  0
LINE
  8
0
 10
55.9872
 20
10.7128
 11
55.3509
 21
10.1362
  0
LINE
  8
0
 10
55.3509
 20
10.1362
 11
54.6612
 21
9.62463
  0
LINE
  8
0
 10
54.6612
 20
9.62463
 11
53.9247
 21
9.18318
  0
LINE
  8
0
 10
53.9247
 20
9.18318
 11
53.1485
 21
8.81604
  0
LINE
  8
0
 10
53.1485
 20
8.81604
 11
52.34
 21
8.52676
  0
LINE
  8
0
 10
52.34
 20
8.52676
 11
51.507
 21
8.31812
  0
LINE
  8
0
 10
51.507
 20
8.31812
 11
50.6576
 21
8.19212
  0
LINE
  8
0
 10
50.6576
 20
8.19212
 11
49.8
 21
8.14999
  0
LINE
  8
0
 10
49.8
 20
8.14999
 11
48.9423
 21
8.19212
  0
LINE
  8
0
 10
20.58
 20
6.79999
 11
20.58
 21
10.16
  0
LINE
  8
0
 10
20.58
 20
10.16
 11
29.72
 21
10.16
  0
LINE
  8
0
 10
29.72
 20
10.16
 11
29.72
 21
6.79999
  0
LINE
  8
0
 10
29.72
 20
6.79999
 11
20.58
 21
6.79999
  0
ENDSEC
  0
SECTION
  2
OBJECTS
  0
DICTIONARY
  0
ENDSEC
  0
EOF
