  0
SECTION
  2
BLOCKS
  0
ENDSEC
  0
SECTION
  2
ENTITIES
  0
LINE
  8
0
 10
96.196
 20
0.0096283
 11
96.3902
 21
0.0384216
  0
LINE
  8
0
 10
96.3902
 20
0.0384216
 11
96.5806
 21
0.0861053
  0
LINE
  8
0
 10
96.5806
 20
0.0861053
 11
96.7654
 21
0.152237
  0
LINE
  8
0
 10
96.7654
 20
0.152237
 11
96.9428
 21
0.236145
  0
LINE
  8
0
 10
96.9428
 20
0.236145
 11
97.1111
 21
0.337051
  0
LINE
  8
0
 10
97.1111
 20
0.337051
 11
97.2688
 21
0.453964
  0
LINE
  8
0
 10
97.2688
 20
0.453964
 11
97.4142
 21
0.585785
  0
LINE
  8
0
 10
97.4142
 20
0.585785
 11
97.546
 21
0.731201
  0
LINE
  8
0
 10
97.546
 20
0.731201
 11
97.6629
 21
0.888855
  0
LINE
  8
0
 10
97.6629
 20
0.888855
 11
97.7638
 21
1.05721
  0
LINE
  8
0
 10
97.7638
 20
1.05721
 11
97.8477
 21
1.23462
  0
LINE
  8
0
 10
97.8477
 20
1.23462
 11
97.9139
 21
1.41942
  0
LINE
  8
0
 10
97.9139
 20
1.41942
 11
97.9616
 21
1.60982
  0
LINE
  8
0
 10
97.9616
 20
1.60982
 11
97.9904
 21
1.80396
  0
LINE
  8
0
 10
97.9904
 20
1.80396
 11
98
 21
2
  0
LINE
  8
0
 10
98
 20
2
 11
98
 21
28
  0
LINE
  8
0
 10
98
 20
28
 11
97.9904
 21
28.196
  0
LINE
  8
0
 10
97.9904
 20
28.196
 11
97.9616
 21
28.3902
  0
LINE
  8
0
 10
97.9616
 20
28.3902
 11
97.9139
 21
28.5806
  0
LINE
  8
0
 10
97.9139
 20
28.5806
 11
97.8477
 21
28.7654
  0
LINE
  8
0
 10
97.8477
 20
28.7654
 11
97.7638
 21
28.9428
  0
LINE
  8
0
 10
97.7638
 20
28.9428
 11
97.6629
 21
29.1111
  0
LINE
  8
0
 10
97.6629
 20
29.1111
 11
97.546
 21
29.2688
  0
LINE
  8
0
 10
97.546
 20
29.2688
 11
97.4142
 21
29.4142
  0
LINE
  8
0
 10
97.4142
 20
29.4142
 11
97.2688
 21
29.546
  0
LINE
  8
0
 10
97.2688
 20
29.546
 11
97.1111
 21
29.6629
  0
LINE
  8
0
 10
97.1111
 20
29.6629
 11
96.9428
 21
29.7638
  0
LINE
  8
0
 10
96.9428
 20
29.7638
 11
96.7654
 21
29.8477
  0
LINE
  8
0
 10
96.7654
 20
29.8477
 11
96.5806
 21
29.9139
  0
LINE
  8
0
 10
96.5806
 20
29.9139
 11
96.3902
 21
29.9616
  0
LINE
  8
0
 10
96.3902
 20
29.9616
 11
96.196
 21
29.9904
  0
LINE
  8
0
 10
96.196
 20
29.9904
 11
96
 21
30
  0
LINE
  8
0
 10
96
 20
30
 11
2
 21
30
  0
LINE
  8
0
 10
2
 20
30
 11
1.80396
 21
29.9904
  0
LINE
  8
0
 10
1.80396
 20
29.9904
 11
1.60982
 21
29.9616
  0
LINE
  8
0
 10
1.60982
 20
29.9616
 11
1.41942
 21
29.9139
  0
LINE
  8
0
 10
1.41942
 20
29.9139
 11
1.23462
 21
29.8477
  0
LINE
  8
0
 10
1.23462
 20
29.8477
 11
1.05721
 21
29.7638
  0
LINE
  8
0
 10
1.05721
 20
29.7638
 11
0.888855
 21
29.6629
  0
LINE
  8
0
 10
0.888855
 20
29.6629
 11
0.731201
 21
29.546
  0
LINE
  8
0
 10
0.731201
 20
29.546
 11
0.585785
 21
29.4142
  0
LINE
  8
0
 10
0.585785
 20
29.4142
 11
0.453964
 21
29.2688
  0
LINE
  8
0
 10
0.453964
 20
29.2688
 11
0.337051
 21
29.1111
  0
LINE
  8
0
 10
0.337051
 20
29.1111
 11
0.236145
 21
28.9428
  0
LINE
  8
0
 10
0.236145
 20
28.9428
 11
0.152237
 21
28.7654
  0
LINE
  8
0
 10
0.152237
 20
28.7654
 11
0.0861053
 21
28.5806
  0
LINE
  8
0
 10
0.0861053
 20
28.5806
 11
0.0384216
 21
28.3902
  0
LINE
  8
0
 10
0.0384216
 20
28.3902
 11
0.0096283
 21
28.196
  0
LINE
  8
0
 10
0.0096283
 20
28.196
 11
0
 21
28
  0
LINE
  8
0
 10
0
 20
28
 11
0
 21
2
  0
LINE
  8
0
 10
0
 20
2
 11
0.0157623
 21
1.74933
  0
LINE
  8
0
 10
0.0157623
 20
1.74933
 11
0.0628204
 21
1.50261
  0
LINE
  8
0
 10
0.0628204
 20
1.50261
 11
0.140442
 21
1.26375
  0
LINE
  8
0
 10
0.140442
 20
1.26375
 11
0.247375
 21
1.03648
  0
LINE
  8
0
 10
0.247375
 20
1.03648
 11
0.381958
 21
0.824417
  0
LINE
  8
0
 10
0.381958
 20
0.824417
 11
0.542053
 21
0.630905
  0
LINE
  8
0
 10
0.542053
 20
0.630905
 11
0.725143
 21
0.458969
  0
LINE
  8
0
 10
0.725143
 20
0.458969
 11
0.928345
 21
0.31134
  0
LINE
  8
0
 10
0.928345
 20
0.31134
 11
1.14844
 21
0.190338
  0
LINE
  8
0
 10
1.14844
 20
0.190338
 11
1.38196
 21
0.0978851
  0
LINE
  8
0
 10
1.38196
 20
0.0978851
 11
1.62523
 21
0.0354156
  0
LINE
  8
0
 10
1.62523
 20
0.0354156
 11
1.8744
 21
0.00393677
  0
LINE
  8
0
 10
1.8744
 20
0.00393677
 11
96
 21
0
  0
LINE
  8
0
 10
96
 20
0
 11
96.196
 21
0.0096283
  0
LINE
  8
0
 10
69.608
 20
6.7438
 11
68.7247
 21
6.87485
  0
LINE
  8
0
 10
68.7247
 20
6.87485
 11
67.8584
 21
7.09184
  0
LINE
  8
0
 10
67.8584
 20
7.09184
 11
67.0176
 21
7.39268
  0
LINE
  8
0
 10
67.0176
 20
7.39268
 11
66.2103
 21
7.77451
  0
LINE
  8
0
 10
66.2103
 20
7.77451
 11
65.4443
 21
8.23361
  0
LINE
  8
0
 10
65.4443
 20
8.23361
 11
64.727
 21
8.76559
  0
LINE
  8
0
 10
64.727
 20
8.76559
 11
64.0653
 21
9.36533
  0
LINE
  8
0
 10
64.0653
 20
9.36533
 11
63.4656
 21
10.027
  0
LINE
  8
0
 10
63.4656
 20
10.027
 11
62.9336
 21
10.7443
  0
LINE
  8
0
 10
62.9336
 20
10.7443
 11
62.4745
 21
11.5103
  0
LINE
  8
0
 10
62.4745
 20
11.5103
 11
62.0927
 21
12.3176
  0
LINE
  8
0
 10
62.0927
 20
12.3176
 11
61.7918
 21
13.1584
  0
LINE
  8
0
 10
61.7918
 20
13.1584
 11
61.5748
 21
14.0247
  0
LINE
  8
0
 10
61.5748
 20
14.0247
 11
61.4438
 21
14.908
  0
LINE
  8
0
 10
61.4438
 20
14.908
 11
61.4
 21
15.8
  0
LINE
  8
0
 10
61.4
 20
15.8
 11
61.4438
 21
16.692
  0
LINE
  8
0
 10
61.4438
 20
16.692
 11
61.5748
 21
17.5753
  0
LINE
  8
0
 10
61.5748
 20
17.5753
 11
61.7918
 21
18.4416
  0
LINE
  8
0
 10
61.7918
 20
18.4416
 11
62.0927
 21
19.2824
  0
LINE
  8
0
 10
62.0927
 20
19.2824
 11
62.4745
 21
20.0897
  0
LINE
  8
0
 10
62.4745
 20
20.0897
 11
62.9336
 21
20.8557
  0
LINE
  8
0
 10
62.9336
 20
20.8557
 11
63.4656
 21
21.573
  0
LINE
  8
0
 10
63.4656
 20
21.573
 11
64.0653
 21
22.2347
  0
LINE
  8
0
 10
64.0653
 20
22.2347
 11
64.727
 21
22.8344
  0
LINE
  8
0
 10
64.727
 20
22.8344
 11
65.4443
 21
23.3664
  0
LINE
  8
0
 10
65.4443
 20
23.3664
 11
66.2103
 21
23.8255
  0
LINE
  8
0
 10
66.2103
 20
23.8255
 11
67.0176
 21
24.2073
  0
LINE
  8
0
 10
67.0176
 20
24.2073
 11
67.8584
 21
24.5081
  0
LINE
  8
0
 10
67.8584
 20
24.5081
 11
68.7247
 21
24.7251
  0
LINE
  8
0
 10
68.7247
 20
24.7251
 11
69.608
 21
24.8562
  0
LINE
  8
0
 10
69.608
 20
24.8562
 11
70.5
 21
24.9
  0
LINE
  8
0
 10
70.5
 20
24.9
 11
71.392
 21
24.8562
  0
LINE
  8
0
 10
71.392
 20
24.8562
 11
72.2753
 21
24.7251
  0
LINE
  8
0
 10
72.2753
 20
24.7251
 11
73.1416
 21
24.5081
  0
LINE
  8
0
 10
73.1416
 20
24.5081
 11
73.9824
 21
24.2073
  0
LINE
  8
0
 10
73.9824
 20
24.2073
 11
74.7897
 21
23.8255
  0
LINE
  8
0
 10
74.7897
 20
23.8255
 11
75.5557
 21
23.3664
  0
LINE
  8
0
 10
75.5557
 20
23.3664
 11
76.273
 21
22.8344
  0
LINE
  8
0
 10
76.273
 20
22.8344
 11
76.9347
 21
22.2347
  0
LINE
  8
0
 10
76.9347
 20
22.2347
 11
77.5344
 21
21.573
  0
LINE
  8
0
 10
77.5344
 20
21.573
 11
78.0664
 21
20.8557
  0
LINE
  8
0
 10
78.0664
 20
20.8557
 11
78.5255
 21
20.0897
  0
LINE
  8
0
 10
78.5255
 20
20.0897
 11
78.9073
 21
19.2824
  0
LINE
  8
0
 10
78.9073
 20
19.2824
 11
79.2081
 21
18.4416
  0
LINE
  8
0
 10
79.2081
 20
18.4416
 11
79.4251
 21
17.5753
  0
LINE
  8
0
 10
79.4251
 20
17.5753
 11
79.5562
 21
16.692
  0
LINE
  8
0
 10
79.5562
 20
16.692
 11
79.6
 21
15.8
  0
LINE
  8
0
 10
79.6
 20
15.8
 11
79.5562
 21
14.908
  0
LINE
  8
0
 10
79.5562
 20
14.908
 11
79.4251
 21
14.0247
  0
LINE
  8
0
 10
79.4251
 20
14.0247
 11
79.2081
 21
13.1584
  0
LINE
  8
0
 10
79.2081
 20
13.1584
 11
78.9073
 21
12.3176
  0
LINE
  8
0
 10
78.9073
 20
12.3176
 11
78.5255
 21
11.5103
  0
LINE
  8
0
 10
78.5255
 20
11.5103
 11
78.0664
 21
10.7443
  0
LINE
  8
0
 10
78.0664
 20
10.7443
 11
77.5344
 21
10.027
  0
LINE
  8
0
 10
77.5344
 20
10.027
 11
76.9347
 21
9.36533
  0
LINE
  8
0
 10
76.9347
 20
9.36533
 11
76.273
 21
8.76559
  0
LINE
  8
0
 10
76.273
 20
8.76559
 11
75.5557
 21
8.23361
  0
LINE
  8
0
 10
75.5557
 20
8.23361
 11
74.7897
 21
7.77451
  0
LINE
  8
0
 10
74.7897
 20
7.77451
 11
73.9824
 21
7.39268
  0
LINE
  8
0
 10
73.9824
 20
7.39268
 11
73.1416
 21
7.09184
  0
LINE
  8
0
 10
73.1416
 20
7.09184
 11
72.2753
 21
6.87485
  0
LINE
  8
0
 10
72.2753
 20
6.87485
 11
71.392
 21
6.7438
  0
LINE
  8
0
 10
71.392
 20
6.7438
 11
70.5
 21
6.7
  0
LINE
  8
0
 10
70.5
 20
6.7
 11
69.608
 21
6.7438
  0
LINE
  8
0
 10
48.908
 20
6.7438
 11
48.0247
 21
6.87485
  0
LINE
  8
0
 10
48.0247
 20
6.87485
 11
47.1584
 21
7.09184
  0
LINE
  8
0
 10
47.1584
 20
7.09184
 11
46.3176
 21
7.39268
  0
LINE
  8
0
 10
46.3176
 20
7.39268
 11
45.5103
 21
7.77451
  0
LINE
  8
0
 10
45.5103
 20
7.77451
 11
44.7443
 21
8.23361
  0
LINE
  8
0
 10
44.7443
 20
8.23361
 11
44.027
 21
8.76559
  0
LINE
  8
0
 10
44.027
 20
8.76559
 11
43.3653
 21
9.36533
  0
LINE
  8
0
 10
43.3653
 20
9.36533
 11
42.7656
 21
10.027
  0
LINE
  8
0
 10
42.7656
 20
10.027
 11
42.2336
 21
10.7443
  0
LINE
  8
0
 10
42.2336
 20
10.7443
 11
41.7745
 21
11.5103
  0
LINE
  8
0
 10
41.7745
 20
11.5103
 11
41.3927
 21
12.3176
  0
LINE
  8
0
 10
41.3927
 20
12.3176
 11
41.0918
 21
13.1584
  0
LINE
  8
0
 10
41.0918
 20
13.1584
 11
40.8748
 21
14.0247
  0
LINE
  8
0
 10
40.8748
 20
14.0247
 11
40.7438
 21
14.908
  0
LINE
  8
0
 10
40.7438
 20
14.908
 11
40.7
 21
15.8
  0
LINE
  8
0
 10
40.7
 20
15.8
 11
40.7438
 21
16.692
  0
LINE
  8
0
 10
40.7438
 20
16.692
 11
40.8748
 21
17.5753
  0
LINE
  8
0
 10
40.8748
 20
17.5753
 11
41.0918
 21
18.4416
  0
LINE
  8
0
 10
41.0918
 20
18.4416
 11
41.3927
 21
19.2824
  0
LINE
  8
0
 10
41.3927
 20
19.2824
 11
41.7745
 21
20.0897
  0
LINE
  8
0
 10
41.7745
 20
20.0897
 11
42.2336
 21
20.8557
  0
LINE
  8
0
 10
42.2336
 20
20.8557
 11
42.7656
 21
21.573
  0
LINE
  8
0
 10
42.7656
 20
21.573
 11
43.3653
 21
22.2347
  0
LINE
  8
0
 10
43.3653
 20
22.2347
 11
44.027
 21
22.8344
  0
LINE
  8
0
 10
44.027
 20
22.8344
 11
44.7443
 21
23.3664
  0
LINE
  8
0
 10
44.7443
 20
23.3664
 11
45.5103
 21
23.8255
  0
LINE
  8
0
 10
45.5103
 20
23.8255
 11
46.3176
 21
24.2073
  0
LINE
  8
0
 10
46.3176
 20
24.2073
 11
47.1584
 21
24.5081
  0
LINE
  8
0
 10
47.1584
 20
24.5081
 11
48.0247
 21
24.7251
  0
LINE
  8
0
 10
48.0247
 20
24.7251
 11
48.908
 21
24.8562
  0
LINE
  8
0
 10
48.908
 20
24.8562
 11
49.8
 21
24.9
  0
LINE
  8
0
 10
49.8
 20
24.9
 11
50.692
 21
24.8562
  0
LINE
  8
0
 10
50.692
 20
24.8562
 11
51.5753
 21
24.7251
  0
LINE
  8
0
 10
51.5753
 20
24.7251
 11
52.4416
 21
24.5081
  0
LINE
  8
0
 10
52.4416
 20
24.5081
 11
53.2824
 21
24.2073
  0
LINE
  8
0
 10
53.2824
 20
24.2073
 11
54.0897
 21
23.8255
  0
LINE
  8
0
 10
54.0897
 20
23.8255
 11
54.8557
 21
23.3664
  0
LINE
  8
0
 10
54.8557
 20
23.3664
 11
55.573
 21
22.8344
  0
LINE
  8
0
 10
55.573
 20
22.8344
 11
56.2347
 21
22.2347
  0
LINE
  8
0
 10
56.2347
 20
22.2347
 11
56.8344
 21
21.573
  0
LINE
  8
0
 10
56.8344
 20
21.573
 11
57.3664
 21
20.8557
  0
LINE
  8
0
 10
57.3664
 20
20.8557
 11
57.8255
 21
20.0897
  0
LINE
  8
0
 10
57.8255
 20
20.0897
 11
58.2073
 21
19.2824
  0
LINE
  8
0
 10
58.2073
 20
19.2824
 11
58.5081
 21
18.4416
  0
LINE
  8
0
 10
58.5081
 20
18.4416
 11
58.7251
 21
17.5753
  0
LINE
  8
0
 10
58.7251
 20
17.5753
 11
58.8562
 21
16.692
  0
LINE
  8
0
 10
58.8562
 20
16.692
 11
58.9
 21
15.8
  0
LINE
  8
0
 10
58.9
 20
15.8
 11
58.8562
 21
14.908
  0
LINE
  8
0
 10
58.8562
 20
14.908
 11
58.7251
 21
14.0247
  0
LINE
  8
0
 10
58.7251
 20
14.0247
 11
58.5081
 21
13.1584
  0
LINE
  8
0
 10
58.5081
 20
13.1584
 11
58.2073
 21
12.3176
  0
LINE
  8
0
 10
58.2073
 20
12.3176
 11
57.8255
 21
11.5103
  0
LINE
  8
0
 10
57.8255
 20
11.5103
 11
57.3664
 21
10.7443
  0
LINE
  8
0
 10
57.3664
 20
10.7443
 11
56.8344
 21
10.027
  0
LINE
  8
0
 10
56.8344
 20
10.027
 11
56.2347
 21
9.36533
  0
LINE
  8
0
 10
56.2347
 20
9.36533
 11
55.573
 21
8.76559
  0
LINE
  8
0
 10
55.573
 20
8.76559
 11
54.8557
 21
8.23361
  0
LINE
  8
0
 10
54.8557
 20
8.23361
 11
54.0897
 21
7.77451
  0
LINE
  8
0
 10
54.0897
 20
7.77451
 11
53.2824
 21
7.39268
  0
LINE
  8
0
 10
53.2824
 20
7.39268
 11
52.4416
 21
7.09184
  0
LINE
  8
0
 10
52.4416
 20
7.09184
 11
51.5753
 21
6.87485
  0
LINE
  8
0
 10
51.5753
 20
6.87485
 11
50.692
 21
6.7438
  0
LINE
  8
0
 10
50.692
 20
6.7438
 11
49.8
 21
6.7
  0
LINE
  8
0
 10
49.8
 20
6.7
 11
48.908
 21
6.7438
  0
LINE
  8
0
 10
20.58
 20
5.69998
 11
20.58
 21
9.05998
  0
LINE
  8
0
 10
20.58
 20
9.05998
 11
29.72
 21
9.05998
  0
LINE
  8
0
 10
29.72
 20
9.05998
 11
29.72
 21
5.69998
  0
LINE
  8
0
 10
29.72
 20
5.69998
 11
20.58
 21
5.69998
  0
ENDSEC
  0
SECTION
  2
OBJECTS
  0
DICTIONARY
  0
ENDSEC
  0
EOF
