  0
SECTION
  2
BLOCKS
  0
ENDSEC
  0
SECTION
  2
ENTITIES
  0
LINE
  8
0
 10
96.196
 20
0.0096283
 11
96.3902
 21
0.0384216
  0
LINE
  8
0
 10
96.3902
 20
0.0384216
 11
96.5806
 21
0.0861053
  0
LINE
  8
0
 10
96.5806
 20
0.0861053
 11
96.7654
 21
0.152237
  0
LINE
  8
0
 10
96.7654
 20
0.152237
 11
96.9428
 21
0.236145
  0
LINE
  8
0
 10
96.9428
 20
0.236145
 11
97.1111
 21
0.337051
  0
LINE
  8
0
 10
97.1111
 20
0.337051
 11
97.2688
 21
0.453964
  0
LINE
  8
0
 10
97.2688
 20
0.453964
 11
97.4142
 21
0.585785
  0
LINE
  8
0
 10
97.4142
 20
0.585785
 11
97.546
 21
0.731201
  0
LINE
  8
0
 10
97.546
 20
0.731201
 11
97.6629
 21
0.888855
  0
LINE
  8
0
 10
97.6629
 20
0.888855
 11
97.7638
 21
1.05721
  0
LINE
  8
0
 10
97.7638
 20
1.05721
 11
97.8477
 21
1.23462
  0
LINE
  8
0
 10
97.8477
 20
1.23462
 11
97.9139
 21
1.41942
  0
LINE
  8
0
 10
97.9139
 20
1.41942
 11
97.9616
 21
1.60982
  0
LINE
  8
0
 10
97.9616
 20
1.60982
 11
97.9904
 21
1.80396
  0
LINE
  8
0
 10
97.9904
 20
1.80396
 11
98
 21
2
  0
LINE
  8
0
 10
98
 20
2
 11
98
 21
28
  0
LINE
  8
0
 10
98
 20
28
 11
97.9904
 21
28.196
  0
LINE
  8
0
 10
97.9904
 20
28.196
 11
97.9616
 21
28.3902
  0
LINE
  8
0
 10
97.9616
 20
28.3902
 11
97.9139
 21
28.5806
  0
LINE
  8
0
 10
97.9139
 20
28.5806
 11
97.8477
 21
28.7654
  0
LINE
  8
0
 10
97.8477
 20
28.7654
 11
97.7638
 21
28.9428
  0
LINE
  8
0
 10
97.7638
 20
28.9428
 11
97.6629
 21
29.1111
  0
LINE
  8
0
 10
97.6629
 20
29.1111
 11
97.546
 21
29.2688
  0
LINE
  8
0
 10
97.546
 20
29.2688
 11
97.4142
 21
29.4142
  0
LINE
  8
0
 10
97.4142
 20
29.4142
 11
97.2688
 21
29.546
  0
LINE
  8
0
 10
97.2688
 20
29.546
 11
97.1111
 21
29.6629
  0
LINE
  8
0
 10
97.1111
 20
29.6629
 11
96.9428
 21
29.7638
  0
LINE
  8
0
 10
96.9428
 20
29.7638
 11
96.7654
 21
29.8477
  0
LINE
  8
0
 10
96.7654
 20
29.8477
 11
96.5806
 21
29.9139
  0
LINE
  8
0
 10
96.5806
 20
29.9139
 11
96.3902
 21
29.9616
  0
LINE
  8
0
 10
96.3902
 20
29.9616
 11
96.196
 21
29.9904
  0
LINE
  8
0
 10
96.196
 20
29.9904
 11
96
 21
30
  0
LINE
  8
0
 10
96
 20
30
 11
2
 21
30
  0
LINE
  8
0
 10
2
 20
30
 11
1.80396
 21
29.9904
  0
LINE
  8
0
 10
1.80396
 20
29.9904
 11
1.60982
 21
29.9616
  0
LINE
  8
0
 10
1.60982
 20
29.9616
 11
1.41942
 21
29.9139
  0
LINE
  8
0
 10
1.41942
 20
29.9139
 11
1.23462
 21
29.8477
  0
LINE
  8
0
 10
1.23462
 20
29.8477
 11
1.05721
 21
29.7638
  0
LINE
  8
0
 10
1.05721
 20
29.7638
 11
0.888855
 21
29.6629
  0
LINE
  8
0
 10
0.888855
 20
29.6629
 11
0.731201
 21
29.546
  0
LINE
  8
0
 10
0.731201
 20
29.546
 11
0.585785
 21
29.4142
  0
LINE
  8
0
 10
0.585785
 20
29.4142
 11
0.453964
 21
29.2688
  0
LINE
  8
0
 10
0.453964
 20
29.2688
 11
0.337051
 21
29.1111
  0
LINE
  8
0
 10
0.337051
 20
29.1111
 11
0.236145
 21
28.9428
  0
LINE
  8
0
 10
0.236145
 20
28.9428
 11
0.152237
 21
28.7654
  0
LINE
  8
0
 10
0.152237
 20
28.7654
 11
0.0861053
 21
28.5806
  0
LINE
  8
0
 10
0.0861053
 20
28.5806
 11
0.0384216
 21
28.3902
  0
LINE
  8
0
 10
0.0384216
 20
28.3902
 11
0.0096283
 21
28.196
  0
LINE
  8
0
 10
0.0096283
 20
28.196
 11
0
 21
28
  0
LINE
  8
0
 10
0
 20
28
 11
0
 21
2
  0
LINE
  8
0
 10
0
 20
2
 11
0.0157623
 21
1.74933
  0
LINE
  8
0
 10
0.0157623
 20
1.74933
 11
0.0628204
 21
1.50261
  0
LINE
  8
0
 10
0.0628204
 20
1.50261
 11
0.140442
 21
1.26375
  0
LINE
  8
0
 10
0.140442
 20
1.26375
 11
0.247375
 21
1.03648
  0
LINE
  8
0
 10
0.247375
 20
1.03648
 11
0.381958
 21
0.824417
  0
LINE
  8
0
 10
0.381958
 20
0.824417
 11
0.542053
 21
0.630905
  0
LINE
  8
0
 10
0.542053
 20
0.630905
 11
0.725143
 21
0.458969
  0
LINE
  8
0
 10
0.725143
 20
0.458969
 11
0.928345
 21
0.31134
  0
LINE
  8
0
 10
0.928345
 20
0.31134
 11
1.14844
 21
0.190338
  0
LINE
  8
0
 10
1.14844
 20
0.190338
 11
1.38196
 21
0.0978851
  0
LINE
  8
0
 10
1.38196
 20
0.0978851
 11
1.62523
 21
0.0354156
  0
LINE
  8
0
 10
1.62523
 20
0.0354156
 11
1.8744
 21
0.00393677
  0
LINE
  8
0
 10
1.8744
 20
0.00393677
 11
96
 21
0
  0
LINE
  8
0
 10
96
 20
0
 11
96.196
 21
0.0096283
  0
LINE
  8
0
 10
26.6423
 20
7.09213
 11
25.793
 21
7.21812
  0
LINE
  8
0
 10
25.793
 20
7.21812
 11
24.96
 21
7.42676
  0
LINE
  8
0
 10
24.96
 20
7.42676
 11
24.1515
 21
7.71605
  0
LINE
  8
0
 10
24.1515
 20
7.71605
 11
23.3753
 21
8.08318
  0
LINE
  8
0
 10
23.3753
 20
8.08318
 11
22.6387
 21
8.52463
  0
LINE
  8
0
 10
22.6387
 20
8.52463
 11
21.9491
 21
9.03615
  0
LINE
  8
0
 10
21.9491
 20
9.03615
 11
21.3128
 21
9.61281
  0
LINE
  8
0
 10
21.3128
 20
9.61281
 11
20.7361
 21
10.2491
  0
LINE
  8
0
 10
20.7361
 20
10.2491
 11
20.2246
 21
10.9388
  0
LINE
  8
0
 10
20.2246
 20
10.9388
 11
19.7832
 21
11.6753
  0
LINE
  8
0
 10
19.7832
 20
11.6753
 11
19.416
 21
12.4515
  0
LINE
  8
0
 10
19.416
 20
12.4515
 11
19.1268
 21
13.26
  0
LINE
  8
0
 10
19.1268
 20
13.26
 11
18.9181
 21
14.093
  0
LINE
  8
0
 10
18.9181
 20
14.093
 11
18.7921
 21
14.9423
  0
LINE
  8
0
 10
18.7921
 20
14.9423
 11
18.75
 21
15.8
  0
LINE
  8
0
 10
18.75
 20
15.8
 11
18.7921
 21
16.6576
  0
LINE
  8
0
 10
18.7921
 20
16.6576
 11
18.9181
 21
17.507
  0
LINE
  8
0
 10
18.9181
 20
17.507
 11
19.1268
 21
18.34
  0
LINE
  8
0
 10
19.1268
 20
18.34
 11
19.416
 21
19.1485
  0
LINE
  8
0
 10
19.416
 20
19.1485
 11
19.7832
 21
19.9247
  0
LINE
  8
0
 10
19.7832
 20
19.9247
 11
20.2246
 21
20.6612
  0
LINE
  8
0
 10
20.2246
 20
20.6612
 11
20.7361
 21
21.3509
  0
LINE
  8
0
 10
20.7361
 20
21.3509
 11
21.3128
 21
21.9872
  0
LINE
  8
0
 10
21.3128
 20
21.9872
 11
21.9491
 21
22.5638
  0
LINE
  8
0
 10
21.9491
 20
22.5638
 11
22.6387
 21
23.0753
  0
LINE
  8
0
 10
22.6387
 20
23.0753
 11
23.3753
 21
23.5168
  0
LINE
  8
0
 10
23.3753
 20
23.5168
 11
24.1515
 21
23.8839
  0
LINE
  8
0
 10
24.1515
 20
23.8839
 11
24.96
 21
24.1732
  0
LINE
  8
0
 10
24.96
 20
24.1732
 11
25.793
 21
24.3819
  0
LINE
  8
0
 10
25.793
 20
24.3819
 11
26.6423
 21
24.5079
  0
LINE
  8
0
 10
26.6423
 20
24.5079
 11
27.5
 21
24.55
  0
LINE
  8
0
 10
27.5
 20
24.55
 11
28.3576
 21
24.5079
  0
LINE
  8
0
 10
28.3576
 20
24.5079
 11
29.207
 21
24.3819
  0
LINE
  8
0
 10
29.207
 20
24.3819
 11
30.04
 21
24.1732
  0
LINE
  8
0
 10
30.04
 20
24.1732
 11
30.8485
 21
23.8839
  0
LINE
  8
0
 10
30.8485
 20
23.8839
 11
31.6247
 21
23.5168
  0
LINE
  8
0
 10
31.6247
 20
23.5168
 11
32.3612
 21
23.0753
  0
LINE
  8
0
 10
32.3612
 20
23.0753
 11
33.0509
 21
22.5638
  0
LINE
  8
0
 10
33.0509
 20
22.5638
 11
33.6872
 21
21.9872
  0
LINE
  8
0
 10
33.6872
 20
21.9872
 11
34.2638
 21
21.3509
  0
LINE
  8
0
 10
34.2638
 20
21.3509
 11
34.7753
 21
20.6612
  0
LINE
  8
0
 10
34.7753
 20
20.6612
 11
35.2168
 21
19.9247
  0
LINE
  8
0
 10
35.2168
 20
19.9247
 11
35.5839
 21
19.1485
  0
LINE
  8
0
 10
35.5839
 20
19.1485
 11
35.8732
 21
18.34
  0
LINE
  8
0
 10
35.8732
 20
18.34
 11
36.0819
 21
17.507
  0
LINE
  8
0
 10
36.0819
 20
17.507
 11
36.2079
 21
16.6576
  0
LINE
  8
0
 10
36.2079
 20
16.6576
 11
36.25
 21
15.8
  0
LINE
  8
0
 10
36.25
 20
15.8
 11
36.2079
 21
14.9423
  0
LINE
  8
0
 10
36.2079
 20
14.9423
 11
36.0819
 21
14.093
  0
LINE
  8
0
 10
36.0819
 20
14.093
 11
35.8732
 21
13.26
  0
LINE
  8
0
 10
35.8732
 20
13.26
 11
35.5839
 21
12.4515
  0
LINE
  8
0
 10
35.5839
 20
12.4515
 11
35.2168
 21
11.6753
  0
LINE
  8
0
 10
35.2168
 20
11.6753
 11
34.7753
 21
10.9388
  0
LINE
  8
0
 10
34.7753
 20
10.9388
 11
34.2638
 21
10.2491
  0
LINE
  8
0
 10
34.2638
 20
10.2491
 11
33.6872
 21
9.61281
  0
LINE
  8
0
 10
33.6872
 20
9.61281
 11
33.0509
 21
9.03615
  0
LINE
  8
0
 10
33.0509
 20
9.03615
 11
32.3612
 21
8.52463
  0
LINE
  8
0
 10
32.3612
 20
8.52463
 11
31.6247
 21
8.08318
  0
LINE
  8
0
 10
31.6247
 20
8.08318
 11
30.8485
 21
7.71605
  0
LINE
  8
0
 10
30.8485
 20
7.71605
 11
30.04
 21
7.42676
  0
LINE
  8
0
 10
30.04
 20
7.42676
 11
29.207
 21
7.21812
  0
LINE
  8
0
 10
29.207
 20
7.21812
 11
28.3576
 21
7.09213
  0
LINE
  8
0
 10
28.3576
 20
7.09213
 11
27.5
 21
7.04999
  0
LINE
  8
0
 10
27.5
 20
7.04999
 11
26.6423
 21
7.09213
  0
LINE
  8
0
 10
47.3423
 20
7.09213
 11
46.493
 21
7.21812
  0
LINE
  8
0
 10
46.493
 20
7.21812
 11
45.66
 21
7.42676
  0
LINE
  8
0
 10
45.66
 20
7.42676
 11
44.8515
 21
7.71605
  0
LINE
  8
0
 10
44.8515
 20
7.71605
 11
44.0753
 21
8.08318
  0
LINE
  8
0
 10
44.0753
 20
8.08318
 11
43.3388
 21
8.52463
  0
LINE
  8
0
 10
43.3388
 20
8.52463
 11
42.649
 21
9.03615
  0
LINE
  8
0
 10
42.649
 20
9.03615
 11
42.0128
 21
9.61281
  0
LINE
  8
0
 10
42.0128
 20
9.61281
 11
41.4362
 21
10.2491
  0
LINE
  8
0
 10
41.4362
 20
10.2491
 11
40.9246
 21
10.9388
  0
LINE
  8
0
 10
40.9246
 20
10.9388
 11
40.4832
 21
11.6753
  0
LINE
  8
0
 10
40.4832
 20
11.6753
 11
40.116
 21
12.4515
  0
LINE
  8
0
 10
40.116
 20
12.4515
 11
39.8268
 21
13.26
  0
LINE
  8
0
 10
39.8268
 20
13.26
 11
39.6181
 21
14.093
  0
LINE
  8
0
 10
39.6181
 20
14.093
 11
39.4921
 21
14.9423
  0
LINE
  8
0
 10
39.4921
 20
14.9423
 11
39.45
 21
15.8
  0
LINE
  8
0
 10
39.45
 20
15.8
 11
39.4921
 21
16.6576
  0
LINE
  8
0
 10
39.4921
 20
16.6576
 11
39.6181
 21
17.507
  0
LINE
  8
0
 10
39.6181
 20
17.507
 11
39.8268
 21
18.34
  0
LINE
  8
0
 10
39.8268
 20
18.34
 11
40.116
 21
19.1485
  0
LINE
  8
0
 10
40.116
 20
19.1485
 11
40.4832
 21
19.9247
  0
LINE
  8
0
 10
40.4832
 20
19.9247
 11
40.9246
 21
20.6612
  0
LINE
  8
0
 10
40.9246
 20
20.6612
 11
41.4362
 21
21.3509
  0
LINE
  8
0
 10
41.4362
 20
21.3509
 11
42.0128
 21
21.9872
  0
LINE
  8
0
 10
42.0128
 20
21.9872
 11
42.649
 21
22.5638
  0
LINE
  8
0
 10
42.649
 20
22.5638
 11
43.3388
 21
23.0753
  0
LINE
  8
0
 10
43.3388
 20
23.0753
 11
44.0753
 21
23.5168
  0
LINE
  8
0
 10
44.0753
 20
23.5168
 11
44.8515
 21
23.8839
  0
LINE
  8
0
 10
44.8515
 20
23.8839
 11
45.66
 21
24.1732
  0
LINE
  8
0
 10
45.66
 20
24.1732
 11
46.493
 21
24.3819
  0
LINE
  8
0
 10
46.493
 20
24.3819
 11
47.3423
 21
24.5079
  0
LINE
  8
0
 10
47.3423
 20
24.5079
 11
48.2
 21
24.55
  0
LINE
  8
0
 10
48.2
 20
24.55
 11
49.0576
 21
24.5079
  0
LINE
  8
0
 10
49.0576
 20
24.5079
 11
49.907
 21
24.3819
  0
LINE
  8
0
 10
49.907
 20
24.3819
 11
50.74
 21
24.1732
  0
LINE
  8
0
 10
50.74
 20
24.1732
 11
51.5485
 21
23.8839
  0
LINE
  8
0
 10
51.5485
 20
23.8839
 11
52.3247
 21
23.5168
  0
LINE
  8
0
 10
52.3247
 20
23.5168
 11
53.0612
 21
23.0753
  0
LINE
  8
0
 10
53.0612
 20
23.0753
 11
53.7509
 21
22.5638
  0
LINE
  8
0
 10
53.7509
 20
22.5638
 11
54.3872
 21
21.9872
  0
LINE
  8
0
 10
54.3872
 20
21.9872
 11
54.9638
 21
21.3509
  0
LINE
  8
0
 10
54.9638
 20
21.3509
 11
55.4754
 21
20.6612
  0
LINE
  8
0
 10
55.4754
 20
20.6612
 11
55.9168
 21
19.9247
  0
LINE
  8
0
 10
55.9168
 20
19.9247
 11
56.2839
 21
19.1485
  0
LINE
  8
0
 10
56.2839
 20
19.1485
 11
56.5732
 21
18.34
  0
LINE
  8
0
 10
56.5732
 20
18.34
 11
56.7819
 21
17.507
  0
LINE
  8
0
 10
56.7819
 20
17.507
 11
56.9079
 21
16.6576
  0
LINE
  8
0
 10
56.9079
 20
16.6576
 11
56.95
 21
15.8
  0
LINE
  8
0
 10
56.95
 20
15.8
 11
56.9079
 21
14.9423
  0
LINE
  8
0
 10
56.9079
 20
14.9423
 11
56.7819
 21
14.093
  0
LINE
  8
0
 10
56.7819
 20
14.093
 11
56.5732
 21
13.26
  0
LINE
  8
0
 10
56.5732
 20
13.26
 11
56.2839
 21
12.4515
  0
LINE
  8
0
 10
56.2839
 20
12.4515
 11
55.9168
 21
11.6753
  0
LINE
  8
0
 10
55.9168
 20
11.6753
 11
55.4754
 21
10.9388
  0
LINE
  8
0
 10
55.4754
 20
10.9388
 11
54.9638
 21
10.2491
  0
LINE
  8
0
 10
54.9638
 20
10.2491
 11
54.3872
 21
9.61281
  0
LINE
  8
0
 10
54.3872
 20
9.61281
 11
53.7509
 21
9.03615
  0
LINE
  8
0
 10
53.7509
 20
9.03615
 11
53.0612
 21
8.52463
  0
LINE
  8
0
 10
53.0612
 20
8.52463
 11
52.3247
 21
8.08318
  0
LINE
  8
0
 10
52.3247
 20
8.08318
 11
51.5485
 21
7.71605
  0
LINE
  8
0
 10
51.5485
 20
7.71605
 11
50.74
 21
7.42676
  0
LINE
  8
0
 10
50.74
 20
7.42676
 11
49.907
 21
7.21812
  0
LINE
  8
0
 10
49.907
 20
7.21812
 11
49.0576
 21
7.09213
  0
LINE
  8
0
 10
49.0576
 20
7.09213
 11
48.2
 21
7.04999
  0
LINE
  8
0
 10
48.2
 20
7.04999
 11
47.3423
 21
7.09213
  0
LINE
  8
0
 10
66.5
 20
5.69998
 11
66.5
 21
12
  0
LINE
  8
0
 10
66.5
 20
12
 11
79.1
 21
12
  0
LINE
  8
0
 10
79.1
 20
12
 11
79.1
 21
5.69998
  0
LINE
  8
0
 10
79.1
 20
5.69998
 11
66.5
 21
5.69998
  0
ENDSEC
  0
SECTION
  2
OBJECTS
  0
DICTIONARY
  0
ENDSEC
  0
EOF
