  0
SECTION
  2
BLOCKS
  0
ENDSEC
  0
SECTION
  2
ENTITIES
  0
LINE
  8
0
 10
96.196
 20
0.0096283
 11
96.3902
 21
0.0384216
  0
LINE
  8
0
 10
96.3902
 20
0.0384216
 11
96.5806
 21
0.0861053
  0
LINE
  8
0
 10
96.5806
 20
0.0861053
 11
96.7654
 21
0.152237
  0
LINE
  8
0
 10
96.7654
 20
0.152237
 11
96.9428
 21
0.236145
  0
LINE
  8
0
 10
96.9428
 20
0.236145
 11
97.1111
 21
0.337051
  0
LINE
  8
0
 10
97.1111
 20
0.337051
 11
97.2688
 21
0.453964
  0
LINE
  8
0
 10
97.2688
 20
0.453964
 11
97.4142
 21
0.585785
  0
LINE
  8
0
 10
97.4142
 20
0.585785
 11
97.546
 21
0.731201
  0
LINE
  8
0
 10
97.546
 20
0.731201
 11
97.6629
 21
0.888855
  0
LINE
  8
0
 10
97.6629
 20
0.888855
 11
97.7638
 21
1.05721
  0
LINE
  8
0
 10
97.7638
 20
1.05721
 11
97.8477
 21
1.23462
  0
LINE
  8
0
 10
97.8477
 20
1.23462
 11
97.9139
 21
1.41942
  0
LINE
  8
0
 10
97.9139
 20
1.41942
 11
97.9616
 21
1.60982
  0
LINE
  8
0
 10
97.9616
 20
1.60982
 11
97.9904
 21
1.80396
  0
LINE
  8
0
 10
97.9904
 20
1.80396
 11
98
 21
2
  0
LINE
  8
0
 10
98
 20
2
 11
98
 21
28
  0
LINE
  8
0
 10
98
 20
28
 11
97.9904
 21
28.196
  0
LINE
  8
0
 10
97.9904
 20
28.196
 11
97.9616
 21
28.3902
  0
LINE
  8
0
 10
97.9616
 20
28.3902
 11
97.9139
 21
28.5806
  0
LINE
  8
0
 10
97.9139
 20
28.5806
 11
97.8477
 21
28.7654
  0
LINE
  8
0
 10
97.8477
 20
28.7654
 11
97.7638
 21
28.9428
  0
LINE
  8
0
 10
97.7638
 20
28.9428
 11
97.6629
 21
29.1111
  0
LINE
  8
0
 10
97.6629
 20
29.1111
 11
97.546
 21
29.2688
  0
LINE
  8
0
 10
97.546
 20
29.2688
 11
97.4142
 21
29.4142
  0
LINE
  8
0
 10
97.4142
 20
29.4142
 11
97.2688
 21
29.546
  0
LINE
  8
0
 10
97.2688
 20
29.546
 11
97.1111
 21
29.6629
  0
LINE
  8
0
 10
97.1111
 20
29.6629
 11
96.9428
 21
29.7638
  0
LINE
  8
0
 10
96.9428
 20
29.7638
 11
96.7654
 21
29.8477
  0
LINE
  8
0
 10
96.7654
 20
29.8477
 11
96.5806
 21
29.9139
  0
LINE
  8
0
 10
96.5806
 20
29.9139
 11
96.3902
 21
29.9616
  0
LINE
  8
0
 10
96.3902
 20
29.9616
 11
96.196
 21
29.9904
  0
LINE
  8
0
 10
96.196
 20
29.9904
 11
96
 21
30
  0
LINE
  8
0
 10
96
 20
30
 11
2
 21
30
  0
LINE
  8
0
 10
2
 20
30
 11
1.80396
 21
29.9904
  0
LINE
  8
0
 10
1.80396
 20
29.9904
 11
1.60982
 21
29.9616
  0
LINE
  8
0
 10
1.60982
 20
29.9616
 11
1.41942
 21
29.9139
  0
LINE
  8
0
 10
1.41942
 20
29.9139
 11
1.23462
 21
29.8477
  0
LINE
  8
0
 10
1.23462
 20
29.8477
 11
1.05721
 21
29.7638
  0
LINE
  8
0
 10
1.05721
 20
29.7638
 11
0.888855
 21
29.6629
  0
LINE
  8
0
 10
0.888855
 20
29.6629
 11
0.731201
 21
29.546
  0
LINE
  8
0
 10
0.731201
 20
29.546
 11
0.585785
 21
29.4142
  0
LINE
  8
0
 10
0.585785
 20
29.4142
 11
0.453964
 21
29.2688
  0
LINE
  8
0
 10
0.453964
 20
29.2688
 11
0.337051
 21
29.1111
  0
LINE
  8
0
 10
0.337051
 20
29.1111
 11
0.236145
 21
28.9428
  0
LINE
  8
0
 10
0.236145
 20
28.9428
 11
0.152237
 21
28.7654
  0
LINE
  8
0
 10
0.152237
 20
28.7654
 11
0.0861053
 21
28.5806
  0
LINE
  8
0
 10
0.0861053
 20
28.5806
 11
0.0384216
 21
28.3902
  0
LINE
  8
0
 10
0.0384216
 20
28.3902
 11
0.0096283
 21
28.196
  0
LINE
  8
0
 10
0.0096283
 20
28.196
 11
0
 21
28
  0
LINE
  8
0
 10
0
 20
28
 11
0
 21
2
  0
LINE
  8
0
 10
0
 20
2
 11
0.0157623
 21
1.74933
  0
LINE
  8
0
 10
0.0157623
 20
1.74933
 11
0.0628204
 21
1.50261
  0
LINE
  8
0
 10
0.0628204
 20
1.50261
 11
0.140442
 21
1.26375
  0
LINE
  8
0
 10
0.140442
 20
1.26375
 11
0.247375
 21
1.03648
  0
LINE
  8
0
 10
0.247375
 20
1.03648
 11
0.381958
 21
0.824417
  0
LINE
  8
0
 10
0.381958
 20
0.824417
 11
0.542053
 21
0.630905
  0
LINE
  8
0
 10
0.542053
 20
0.630905
 11
0.725143
 21
0.458969
  0
LINE
  8
0
 10
0.725143
 20
0.458969
 11
0.928345
 21
0.31134
  0
LINE
  8
0
 10
0.928345
 20
0.31134
 11
1.14844
 21
0.190338
  0
LINE
  8
0
 10
1.14844
 20
0.190338
 11
1.38196
 21
0.0978851
  0
LINE
  8
0
 10
1.38196
 20
0.0978851
 11
1.62523
 21
0.0354156
  0
LINE
  8
0
 10
1.62523
 20
0.0354156
 11
1.8744
 21
0.00393677
  0
LINE
  8
0
 10
1.8744
 20
0.00393677
 11
96
 21
0
  0
LINE
  8
0
 10
96
 20
0
 11
96.196
 21
0.0096283
  0
LINE
  8
0
 10
26.6423
 20
8.19212
 11
25.793
 21
8.31812
  0
LINE
  8
0
 10
25.793
 20
8.31812
 11
24.96
 21
8.52676
  0
LINE
  8
0
 10
24.96
 20
8.52676
 11
24.1515
 21
8.81604
  0
LINE
  8
0
 10
24.1515
 20
8.81604
 11
23.3753
 21
9.18318
  0
LINE
  8
0
 10
23.3753
 20
9.18318
 11
22.6387
 21
9.62463
  0
LINE
  8
0
 10
22.6387
 20
9.62463
 11
21.9491
 21
10.1362
  0
LINE
  8
0
 10
21.9491
 20
10.1362
 11
21.3128
 21
10.7128
  0
LINE
  8
0
 10
21.3128
 20
10.7128
 11
20.7361
 21
11.349
  0
LINE
  8
0
 10
20.7361
 20
11.349
 11
20.2246
 21
12.0388
  0
LINE
  8
0
 10
20.2246
 20
12.0388
 11
19.7832
 21
12.7753
  0
LINE
  8
0
 10
19.7832
 20
12.7753
 11
19.416
 21
13.5515
  0
LINE
  8
0
 10
19.416
 20
13.5515
 11
19.1268
 21
14.36
  0
LINE
  8
0
 10
19.1268
 20
14.36
 11
18.9181
 21
15.1929
  0
LINE
  8
0
 10
18.9181
 20
15.1929
 11
18.7921
 21
16.0423
  0
LINE
  8
0
 10
18.7921
 20
16.0423
 11
18.75
 21
16.9
  0
LINE
  8
0
 10
18.75
 20
16.9
 11
18.7921
 21
17.7576
  0
LINE
  8
0
 10
18.7921
 20
17.7576
 11
18.9181
 21
18.607
  0
LINE
  8
0
 10
18.9181
 20
18.607
 11
19.1268
 21
19.44
  0
LINE
  8
0
 10
19.1268
 20
19.44
 11
19.416
 21
20.2485
  0
LINE
  8
0
 10
19.416
 20
20.2485
 11
19.7832
 21
21.0247
  0
LINE
  8
0
 10
19.7832
 20
21.0247
 11
20.2246
 21
21.7612
  0
LINE
  8
0
 10
20.2246
 20
21.7612
 11
20.7361
 21
22.4509
  0
LINE
  8
0
 10
20.7361
 20
22.4509
 11
21.3128
 21
23.0872
  0
LINE
  8
0
 10
21.3128
 20
23.0872
 11
21.9491
 21
23.6638
  0
LINE
  8
0
 10
21.9491
 20
23.6638
 11
22.6387
 21
24.1754
  0
LINE
  8
0
 10
22.6387
 20
24.1754
 11
23.3753
 21
24.6168
  0
LINE
  8
0
 10
23.3753
 20
24.6168
 11
24.1515
 21
24.9839
  0
LINE
  8
0
 10
24.1515
 20
24.9839
 11
24.96
 21
25.2732
  0
LINE
  8
0
 10
24.96
 20
25.2732
 11
25.793
 21
25.4819
  0
LINE
  8
0
 10
25.793
 20
25.4819
 11
26.6423
 21
25.6079
  0
LINE
  8
0
 10
26.6423
 20
25.6079
 11
27.5
 21
25.65
  0
LINE
  8
0
 10
27.5
 20
25.65
 11
28.3576
 21
25.6079
  0
LINE
  8
0
 10
28.3576
 20
25.6079
 11
29.207
 21
25.4819
  0
LINE
  8
0
 10
29.207
 20
25.4819
 11
30.04
 21
25.2732
  0
LINE
  8
0
 10
30.04
 20
25.2732
 11
30.8485
 21
24.9839
  0
LINE
  8
0
 10
30.8485
 20
24.9839
 11
31.6247
 21
24.6168
  0
LINE
  8
0
 10
31.6247
 20
24.6168
 11
32.3612
 21
24.1754
  0
LINE
  8
0
 10
32.3612
 20
24.1754
 11
33.0509
 21
23.6638
  0
LINE
  8
0
 10
33.0509
 20
23.6638
 11
33.6872
 21
23.0872
  0
LINE
  8
0
 10
33.6872
 20
23.0872
 11
34.2638
 21
22.4509
  0
LINE
  8
0
 10
34.2638
 20
22.4509
 11
34.7753
 21
21.7612
  0
LINE
  8
0
 10
34.7753
 20
21.7612
 11
35.2168
 21
21.0247
  0
LINE
  8
0
 10
35.2168
 20
21.0247
 11
35.5839
 21
20.2485
  0
LINE
  8
0
 10
35.5839
 20
20.2485
 11
35.8732
 21
19.44
  0
LINE
  8
0
 10
35.8732
 20
19.44
 11
36.0819
 21
18.607
  0
LINE
  8
0
 10
36.0819
 20
18.607
 11
36.2079
 21
17.7576
  0
LINE
  8
0
 10
36.2079
 20
17.7576
 11
36.25
 21
16.9
  0
LINE
  8
0
 10
36.25
 20
16.9
 11
36.2079
 21
16.0423
  0
LINE
  8
0
 10
36.2079
 20
16.0423
 11
36.0819
 21
15.1929
  0
LINE
  8
0
 10
36.0819
 20
15.1929
 11
35.8732
 21
14.36
  0
LINE
  8
0
 10
35.8732
 20
14.36
 11
35.5839
 21
13.5515
  0
LINE
  8
0
 10
35.5839
 20
13.5515
 11
35.2168
 21
12.7753
  0
LINE
  8
0
 10
35.2168
 20
12.7753
 11
34.7753
 21
12.0388
  0
LINE
  8
0
 10
34.7753
 20
12.0388
 11
34.2638
 21
11.349
  0
LINE
  8
0
 10
34.2638
 20
11.349
 11
33.6872
 21
10.7128
  0
LINE
  8
0
 10
33.6872
 20
10.7128
 11
33.0509
 21
10.1362
  0
LINE
  8
0
 10
33.0509
 20
10.1362
 11
32.3612
 21
9.62463
  0
LINE
  8
0
 10
32.3612
 20
9.62463
 11
31.6247
 21
9.18318
  0
LINE
  8
0
 10
31.6247
 20
9.18318
 11
30.8485
 21
8.81604
  0
LINE
  8
0
 10
30.8485
 20
8.81604
 11
30.04
 21
8.52676
  0
LINE
  8
0
 10
30.04
 20
8.52676
 11
29.207
 21
8.31812
  0
LINE
  8
0
 10
29.207
 20
8.31812
 11
28.3576
 21
8.19212
  0
LINE
  8
0
 10
28.3576
 20
8.19212
 11
27.5
 21
8.14999
  0
LINE
  8
0
 10
27.5
 20
8.14999
 11
26.6423
 21
8.19212
  0
LINE
  8
0
 10
47.3423
 20
8.19212
 11
46.493
 21
8.31812
  0
LINE
  8
0
 10
46.493
 20
8.31812
 11
45.66
 21
8.52676
  0
LINE
  8
0
 10
45.66
 20
8.52676
 11
44.8515
 21
8.81604
  0
LINE
  8
0
 10
44.8515
 20
8.81604
 11
44.0753
 21
9.18318
  0
LINE
  8
0
 10
44.0753
 20
9.18318
 11
43.3388
 21
9.62463
  0
LINE
  8
0
 10
43.3388
 20
9.62463
 11
42.649
 21
10.1362
  0
LINE
  8
0
 10
42.649
 20
10.1362
 11
42.0128
 21
10.7128
  0
LINE
  8
0
 10
42.0128
 20
10.7128
 11
41.4362
 21
11.349
  0
LINE
  8
0
 10
41.4362
 20
11.349
 11
40.9246
 21
12.0388
  0
LINE
  8
0
 10
40.9246
 20
12.0388
 11
40.4832
 21
12.7753
  0
LINE
  8
0
 10
40.4832
 20
12.7753
 11
40.116
 21
13.5515
  0
LINE
  8
0
 10
40.116
 20
13.5515
 11
39.8268
 21
14.36
  0
LINE
  8
0
 10
39.8268
 20
14.36
 11
39.6181
 21
15.1929
  0
LINE
  8
0
 10
39.6181
 20
15.1929
 11
39.4921
 21
16.0423
  0
LINE
  8
0
 10
39.4921
 20
16.0423
 11
39.45
 21
16.9
  0
LINE
  8
0
 10
39.45
 20
16.9
 11
39.4921
 21
17.7576
  0
LINE
  8
0
 10
39.4921
 20
17.7576
 11
39.6181
 21
18.607
  0
LINE
  8
0
 10
39.6181
 20
18.607
 11
39.8268
 21
19.44
  0
LINE
  8
0
 10
39.8268
 20
19.44
 11
40.116
 21
20.2485
  0
LINE
  8
0
 10
40.116
 20
20.2485
 11
40.4832
 21
21.0247
  0
LINE
  8
0
 10
40.4832
 20
21.0247
 11
40.9246
 21
21.7612
  0
LINE
  8
0
 10
40.9246
 20
21.7612
 11
41.4362
 21
22.4509
  0
LINE
  8
0
 10
41.4362
 20
22.4509
 11
42.0128
 21
23.0872
  0
LINE
  8
0
 10
42.0128
 20
23.0872
 11
42.649
 21
23.6638
  0
LINE
  8
0
 10
42.649
 20
23.6638
 11
43.3388
 21
24.1754
  0
LINE
  8
0
 10
43.3388
 20
24.1754
 11
44.0753
 21
24.6168
  0
LINE
  8
0
 10
44.0753
 20
24.6168
 11
44.8515
 21
24.9839
  0
LINE
  8
0
 10
44.8515
 20
24.9839
 11
45.66
 21
25.2732
  0
LINE
  8
0
 10
45.66
 20
25.2732
 11
46.493
 21
25.4819
  0
LINE
  8
0
 10
46.493
 20
25.4819
 11
47.3423
 21
25.6079
  0
LINE
  8
0
 10
47.3423
 20
25.6079
 11
48.2
 21
25.65
  0
LINE
  8
0
 10
48.2
 20
25.65
 11
49.0576
 21
25.6079
  0
LINE
  8
0
 10
49.0576
 20
25.6079
 11
49.907
 21
25.4819
  0
LINE
  8
0
 10
49.907
 20
25.4819
 11
50.74
 21
25.2732
  0
LINE
  8
0
 10
50.74
 20
25.2732
 11
51.5485
 21
24.9839
  0
LINE
  8
0
 10
51.5485
 20
24.9839
 11
52.3247
 21
24.6168
  0
LINE
  8
0
 10
52.3247
 20
24.6168
 11
53.0612
 21
24.1754
  0
LINE
  8
0
 10
53.0612
 20
24.1754
 11
53.7509
 21
23.6638
  0
LINE
  8
0
 10
53.7509
 20
23.6638
 11
54.3872
 21
23.0872
  0
LINE
  8
0
 10
54.3872
 20
23.0872
 11
54.9638
 21
22.4509
  0
LINE
  8
0
 10
54.9638
 20
22.4509
 11
55.4754
 21
21.7612
  0
LINE
  8
0
 10
55.4754
 20
21.7612
 11
55.9168
 21
21.0247
  0
LINE
  8
0
 10
55.9168
 20
21.0247
 11
56.2839
 21
20.2485
  0
LINE
  8
0
 10
56.2839
 20
20.2485
 11
56.5732
 21
19.44
  0
LINE
  8
0
 10
56.5732
 20
19.44
 11
56.7819
 21
18.607
  0
LINE
  8
0
 10
56.7819
 20
18.607
 11
56.9079
 21
17.7576
  0
LINE
  8
0
 10
56.9079
 20
17.7576
 11
56.95
 21
16.9
  0
LINE
  8
0
 10
56.95
 20
16.9
 11
56.9079
 21
16.0423
  0
LINE
  8
0
 10
56.9079
 20
16.0423
 11
56.7819
 21
15.1929
  0
LINE
  8
0
 10
56.7819
 20
15.1929
 11
56.5732
 21
14.36
  0
LINE
  8
0
 10
56.5732
 20
14.36
 11
56.2839
 21
13.5515
  0
LINE
  8
0
 10
56.2839
 20
13.5515
 11
55.9168
 21
12.7753
  0
LINE
  8
0
 10
55.9168
 20
12.7753
 11
55.4754
 21
12.0388
  0
LINE
  8
0
 10
55.4754
 20
12.0388
 11
54.9638
 21
11.349
  0
LINE
  8
0
 10
54.9638
 20
11.349
 11
54.3872
 21
10.7128
  0
LINE
  8
0
 10
54.3872
 20
10.7128
 11
53.7509
 21
10.1362
  0
LINE
  8
0
 10
53.7509
 20
10.1362
 11
53.0612
 21
9.62463
  0
LINE
  8
0
 10
53.0612
 20
9.62463
 11
52.3247
 21
9.18318
  0
LINE
  8
0
 10
52.3247
 20
9.18318
 11
51.5485
 21
8.81604
  0
LINE
  8
0
 10
51.5485
 20
8.81604
 11
50.74
 21
8.52676
  0
LINE
  8
0
 10
50.74
 20
8.52676
 11
49.907
 21
8.31812
  0
LINE
  8
0
 10
49.907
 20
8.31812
 11
49.0576
 21
8.19212
  0
LINE
  8
0
 10
49.0576
 20
8.19212
 11
48.2
 21
8.14999
  0
LINE
  8
0
 10
48.2
 20
8.14999
 11
47.3423
 21
8.19212
  0
LINE
  8
0
 10
66.4
 20
6.7
 11
66.4
 21
13.2
  0
LINE
  8
0
 10
66.4
 20
13.2
 11
79.2
 21
13.2
  0
LINE
  8
0
 10
79.2
 20
13.2
 11
79.2
 21
6.7
  0
LINE
  8
0
 10
79.2
 20
6.7
 11
66.4
 21
6.7
  0
ENDSEC
  0
SECTION
  2
OBJECTS
  0
DICTIONARY
  0
ENDSEC
  0
EOF
