  0
SECTION
  2
BLOCKS
  0
ENDSEC
  0
SECTION
  2
ENTITIES
  0
LINE
  8
0
 10
96.196
 20
0.0096283
 11
96.3902
 21
0.0384216
  0
LINE
  8
0
 10
96.3902
 20
0.0384216
 11
96.5806
 21
0.0861053
  0
LINE
  8
0
 10
96.5806
 20
0.0861053
 11
96.7654
 21
0.152237
  0
LINE
  8
0
 10
96.7654
 20
0.152237
 11
96.9428
 21
0.236145
  0
LINE
  8
0
 10
96.9428
 20
0.236145
 11
97.1111
 21
0.337051
  0
LINE
  8
0
 10
97.1111
 20
0.337051
 11
97.2688
 21
0.453964
  0
LINE
  8
0
 10
97.2688
 20
0.453964
 11
97.4142
 21
0.585785
  0
LINE
  8
0
 10
97.4142
 20
0.585785
 11
97.546
 21
0.731201
  0
LINE
  8
0
 10
97.546
 20
0.731201
 11
97.6629
 21
0.888855
  0
LINE
  8
0
 10
97.6629
 20
0.888855
 11
97.7638
 21
1.05721
  0
LINE
  8
0
 10
97.7638
 20
1.05721
 11
97.8477
 21
1.23462
  0
LINE
  8
0
 10
97.8477
 20
1.23462
 11
97.9139
 21
1.41942
  0
LINE
  8
0
 10
97.9139
 20
1.41942
 11
97.9616
 21
1.60982
  0
LINE
  8
0
 10
97.9616
 20
1.60982
 11
97.9904
 21
1.80396
  0
LINE
  8
0
 10
97.9904
 20
1.80396
 11
98
 21
2
  0
LINE
  8
0
 10
98
 20
2
 11
98
 21
28
  0
LINE
  8
0
 10
98
 20
28
 11
97.9904
 21
28.196
  0
LINE
  8
0
 10
97.9904
 20
28.196
 11
97.9616
 21
28.3902
  0
LINE
  8
0
 10
97.9616
 20
28.3902
 11
97.9139
 21
28.5806
  0
LINE
  8
0
 10
97.9139
 20
28.5806
 11
97.8477
 21
28.7654
  0
LINE
  8
0
 10
97.8477
 20
28.7654
 11
97.7638
 21
28.9428
  0
LINE
  8
0
 10
97.7638
 20
28.9428
 11
97.6629
 21
29.1111
  0
LINE
  8
0
 10
97.6629
 20
29.1111
 11
97.546
 21
29.2688
  0
LINE
  8
0
 10
97.546
 20
29.2688
 11
97.4142
 21
29.4142
  0
LINE
  8
0
 10
97.4142
 20
29.4142
 11
97.2688
 21
29.546
  0
LINE
  8
0
 10
97.2688
 20
29.546
 11
97.1111
 21
29.6629
  0
LINE
  8
0
 10
97.1111
 20
29.6629
 11
96.9428
 21
29.7638
  0
LINE
  8
0
 10
96.9428
 20
29.7638
 11
96.7654
 21
29.8477
  0
LINE
  8
0
 10
96.7654
 20
29.8477
 11
96.5806
 21
29.9139
  0
LINE
  8
0
 10
96.5806
 20
29.9139
 11
96.3902
 21
29.9616
  0
LINE
  8
0
 10
96.3902
 20
29.9616
 11
96.196
 21
29.9904
  0
LINE
  8
0
 10
96.196
 20
29.9904
 11
96
 21
30
  0
LINE
  8
0
 10
96
 20
30
 11
2
 21
30
  0
LINE
  8
0
 10
2
 20
30
 11
1.80396
 21
29.9904
  0
LINE
  8
0
 10
1.80396
 20
29.9904
 11
1.60982
 21
29.9616
  0
LINE
  8
0
 10
1.60982
 20
29.9616
 11
1.41942
 21
29.9139
  0
LINE
  8
0
 10
1.41942
 20
29.9139
 11
1.23462
 21
29.8477
  0
LINE
  8
0
 10
1.23462
 20
29.8477
 11
1.05721
 21
29.7638
  0
LINE
  8
0
 10
1.05721
 20
29.7638
 11
0.888855
 21
29.6629
  0
LINE
  8
0
 10
0.888855
 20
29.6629
 11
0.731201
 21
29.546
  0
LINE
  8
0
 10
0.731201
 20
29.546
 11
0.585785
 21
29.4142
  0
LINE
  8
0
 10
0.585785
 20
29.4142
 11
0.453964
 21
29.2688
  0
LINE
  8
0
 10
0.453964
 20
29.2688
 11
0.337051
 21
29.1111
  0
LINE
  8
0
 10
0.337051
 20
29.1111
 11
0.236145
 21
28.9428
  0
LINE
  8
0
 10
0.236145
 20
28.9428
 11
0.152237
 21
28.7654
  0
LINE
  8
0
 10
0.152237
 20
28.7654
 11
0.0861053
 21
28.5806
  0
LINE
  8
0
 10
0.0861053
 20
28.5806
 11
0.0384216
 21
28.3902
  0
LINE
  8
0
 10
0.0384216
 20
28.3902
 11
0.0096283
 21
28.196
  0
LINE
  8
0
 10
0.0096283
 20
28.196
 11
0
 21
28
  0
LINE
  8
0
 10
0
 20
28
 11
0
 21
2
  0
LINE
  8
0
 10
0
 20
2
 11
0.0157623
 21
1.74933
  0
LINE
  8
0
 10
0.0157623
 20
1.74933
 11
0.0628204
 21
1.50261
  0
LINE
  8
0
 10
0.0628204
 20
1.50261
 11
0.140442
 21
1.26375
  0
LINE
  8
0
 10
0.140442
 20
1.26375
 11
0.247375
 21
1.03648
  0
LINE
  8
0
 10
0.247375
 20
1.03648
 11
0.381958
 21
0.824417
  0
LINE
  8
0
 10
0.381958
 20
0.824417
 11
0.542053
 21
0.630905
  0
LINE
  8
0
 10
0.542053
 20
0.630905
 11
0.725143
 21
0.458969
  0
LINE
  8
0
 10
0.725143
 20
0.458969
 11
0.928345
 21
0.31134
  0
LINE
  8
0
 10
0.928345
 20
0.31134
 11
1.14844
 21
0.190338
  0
LINE
  8
0
 10
1.14844
 20
0.190338
 11
1.38196
 21
0.0978851
  0
LINE
  8
0
 10
1.38196
 20
0.0978851
 11
1.62523
 21
0.0354156
  0
LINE
  8
0
 10
1.62523
 20
0.0354156
 11
1.8744
 21
0.00393677
  0
LINE
  8
0
 10
1.8744
 20
0.00393677
 11
96
 21
0
  0
LINE
  8
0
 10
96
 20
0
 11
96.196
 21
0.0096283
  0
LINE
  8
0
 10
26.619
 20
6.7438
 11
25.7357
 21
6.87485
  0
LINE
  8
0
 10
25.7357
 20
6.87485
 11
24.8694
 21
7.09184
  0
LINE
  8
0
 10
24.8694
 20
7.09184
 11
24.0286
 21
7.39268
  0
LINE
  8
0
 10
24.0286
 20
7.39268
 11
23.2213
 21
7.77451
  0
LINE
  8
0
 10
23.2213
 20
7.77451
 11
22.4553
 21
8.23361
  0
LINE
  8
0
 10
22.4553
 20
8.23361
 11
21.738
 21
8.76559
  0
LINE
  8
0
 10
21.738
 20
8.76559
 11
21.0763
 21
9.36533
  0
LINE
  8
0
 10
21.0763
 20
9.36533
 11
20.4766
 21
10.027
  0
LINE
  8
0
 10
20.4766
 20
10.027
 11
19.9446
 21
10.7443
  0
LINE
  8
0
 10
19.9446
 20
10.7443
 11
19.4855
 21
11.5103
  0
LINE
  8
0
 10
19.4855
 20
11.5103
 11
19.1037
 21
12.3176
  0
LINE
  8
0
 10
19.1037
 20
12.3176
 11
18.8028
 21
13.1584
  0
LINE
  8
0
 10
18.8028
 20
13.1584
 11
18.5858
 21
14.0247
  0
LINE
  8
0
 10
18.5858
 20
14.0247
 11
18.4548
 21
14.908
  0
LINE
  8
0
 10
18.4548
 20
14.908
 11
18.411
 21
15.8
  0
LINE
  8
0
 10
18.411
 20
15.8
 11
18.4548
 21
16.692
  0
LINE
  8
0
 10
18.4548
 20
16.692
 11
18.5858
 21
17.5753
  0
LINE
  8
0
 10
18.5858
 20
17.5753
 11
18.8028
 21
18.4416
  0
LINE
  8
0
 10
18.8028
 20
18.4416
 11
19.1037
 21
19.2824
  0
LINE
  8
0
 10
19.1037
 20
19.2824
 11
19.4855
 21
20.0897
  0
LINE
  8
0
 10
19.4855
 20
20.0897
 11
19.9446
 21
20.8557
  0
LINE
  8
0
 10
19.9446
 20
20.8557
 11
20.4766
 21
21.573
  0
LINE
  8
0
 10
20.4766
 20
21.573
 11
21.0763
 21
22.2347
  0
LINE
  8
0
 10
21.0763
 20
22.2347
 11
21.738
 21
22.8344
  0
LINE
  8
0
 10
21.738
 20
22.8344
 11
22.4553
 21
23.3664
  0
LINE
  8
0
 10
22.4553
 20
23.3664
 11
23.2213
 21
23.8255
  0
LINE
  8
0
 10
23.2213
 20
23.8255
 11
24.0286
 21
24.2073
  0
LINE
  8
0
 10
24.0286
 20
24.2073
 11
24.8694
 21
24.5081
  0
LINE
  8
0
 10
24.8694
 20
24.5081
 11
25.7357
 21
24.7251
  0
LINE
  8
0
 10
25.7357
 20
24.7251
 11
26.619
 21
24.8562
  0
LINE
  8
0
 10
26.619
 20
24.8562
 11
27.511
 21
24.9
  0
LINE
  8
0
 10
27.511
 20
24.9
 11
28.403
 21
24.8562
  0
LINE
  8
0
 10
28.403
 20
24.8562
 11
29.2863
 21
24.7251
  0
LINE
  8
0
 10
29.2863
 20
24.7251
 11
30.1526
 21
24.5081
  0
LINE
  8
0
 10
30.1526
 20
24.5081
 11
30.9934
 21
24.2073
  0
LINE
  8
0
 10
30.9934
 20
24.2073
 11
31.8007
 21
23.8255
  0
LINE
  8
0
 10
31.8007
 20
23.8255
 11
32.5667
 21
23.3664
  0
LINE
  8
0
 10
32.5667
 20
23.3664
 11
33.284
 21
22.8344
  0
LINE
  8
0
 10
33.284
 20
22.8344
 11
33.9457
 21
22.2347
  0
LINE
  8
0
 10
33.9457
 20
22.2347
 11
34.5454
 21
21.573
  0
LINE
  8
0
 10
34.5454
 20
21.573
 11
35.0774
 21
20.8557
  0
LINE
  8
0
 10
35.0774
 20
20.8557
 11
35.5365
 21
20.0897
  0
LINE
  8
0
 10
35.5365
 20
20.0897
 11
35.9183
 21
19.2824
  0
LINE
  8
0
 10
35.9183
 20
19.2824
 11
36.2191
 21
18.4416
  0
LINE
  8
0
 10
36.2191
 20
18.4416
 11
36.4361
 21
17.5753
  0
LINE
  8
0
 10
36.4361
 20
17.5753
 11
36.5672
 21
16.692
  0
LINE
  8
0
 10
36.5672
 20
16.692
 11
36.611
 21
15.8
  0
LINE
  8
0
 10
36.611
 20
15.8
 11
36.5672
 21
14.908
  0
LINE
  8
0
 10
36.5672
 20
14.908
 11
36.4361
 21
14.0247
  0
LINE
  8
0
 10
36.4361
 20
14.0247
 11
36.2191
 21
13.1584
  0
LINE
  8
0
 10
36.2191
 20
13.1584
 11
35.9183
 21
12.3176
  0
LINE
  8
0
 10
35.9183
 20
12.3176
 11
35.5365
 21
11.5103
  0
LINE
  8
0
 10
35.5365
 20
11.5103
 11
35.0774
 21
10.7443
  0
LINE
  8
0
 10
35.0774
 20
10.7443
 11
34.5454
 21
10.027
  0
LINE
  8
0
 10
34.5454
 20
10.027
 11
33.9457
 21
9.36533
  0
LINE
  8
0
 10
33.9457
 20
9.36533
 11
33.284
 21
8.76559
  0
LINE
  8
0
 10
33.284
 20
8.76559
 11
32.5667
 21
8.23361
  0
LINE
  8
0
 10
32.5667
 20
8.23361
 11
31.8007
 21
7.77451
  0
LINE
  8
0
 10
31.8007
 20
7.77451
 11
30.9934
 21
7.39268
  0
LINE
  8
0
 10
30.9934
 20
7.39268
 11
30.1526
 21
7.09184
  0
LINE
  8
0
 10
30.1526
 20
7.09184
 11
29.2863
 21
6.87485
  0
LINE
  8
0
 10
29.2863
 20
6.87485
 11
28.403
 21
6.7438
  0
LINE
  8
0
 10
28.403
 20
6.7438
 11
27.511
 21
6.7
  0
LINE
  8
0
 10
27.511
 20
6.7
 11
26.619
 21
6.7438
  0
LINE
  8
0
 10
47.262
 20
6.7438
 11
46.3787
 21
6.87485
  0
LINE
  8
0
 10
46.3787
 20
6.87485
 11
45.5124
 21
7.09184
  0
LINE
  8
0
 10
45.5124
 20
7.09184
 11
44.6716
 21
7.39268
  0
LINE
  8
0
 10
44.6716
 20
7.39268
 11
43.8643
 21
7.77451
  0
LINE
  8
0
 10
43.8643
 20
7.77451
 11
43.0983
 21
8.23361
  0
LINE
  8
0
 10
43.0983
 20
8.23361
 11
42.381
 21
8.76559
  0
LINE
  8
0
 10
42.381
 20
8.76559
 11
41.7193
 21
9.36533
  0
LINE
  8
0
 10
41.7193
 20
9.36533
 11
41.1196
 21
10.027
  0
LINE
  8
0
 10
41.1196
 20
10.027
 11
40.5876
 21
10.7443
  0
LINE
  8
0
 10
40.5876
 20
10.7443
 11
40.1285
 21
11.5103
  0
LINE
  8
0
 10
40.1285
 20
11.5103
 11
39.7467
 21
12.3176
  0
LINE
  8
0
 10
39.7467
 20
12.3176
 11
39.4458
 21
13.1584
  0
LINE
  8
0
 10
39.4458
 20
13.1584
 11
39.2289
 21
14.0247
  0
LINE
  8
0
 10
39.2289
 20
14.0247
 11
39.0978
 21
14.908
  0
LINE
  8
0
 10
39.0978
 20
14.908
 11
39.054
 21
15.8
  0
LINE
  8
0
 10
39.054
 20
15.8
 11
39.0978
 21
16.692
  0
LINE
  8
0
 10
39.0978
 20
16.692
 11
39.2289
 21
17.5753
  0
LINE
  8
0
 10
39.2289
 20
17.5753
 11
39.4458
 21
18.4416
  0
LINE
  8
0
 10
39.4458
 20
18.4416
 11
39.7467
 21
19.2824
  0
LINE
  8
0
 10
39.7467
 20
19.2824
 11
40.1285
 21
20.0897
  0
LINE
  8
0
 10
40.1285
 20
20.0897
 11
40.5876
 21
20.8557
  0
LINE
  8
0
 10
40.5876
 20
20.8557
 11
41.1196
 21
21.573
  0
LINE
  8
0
 10
41.1196
 20
21.573
 11
41.7193
 21
22.2347
  0
LINE
  8
0
 10
41.7193
 20
22.2347
 11
42.381
 21
22.8344
  0
LINE
  8
0
 10
42.381
 20
22.8344
 11
43.0983
 21
23.3664
  0
LINE
  8
0
 10
43.0983
 20
23.3664
 11
43.8643
 21
23.8255
  0
LINE
  8
0
 10
43.8643
 20
23.8255
 11
44.6716
 21
24.2073
  0
LINE
  8
0
 10
44.6716
 20
24.2073
 11
45.5124
 21
24.5081
  0
LINE
  8
0
 10
45.5124
 20
24.5081
 11
46.3787
 21
24.7251
  0
LINE
  8
0
 10
46.3787
 20
24.7251
 11
47.262
 21
24.8562
  0
LINE
  8
0
 10
47.262
 20
24.8562
 11
48.154
 21
24.9
  0
LINE
  8
0
 10
48.154
 20
24.9
 11
49.0459
 21
24.8562
  0
LINE
  8
0
 10
49.0459
 20
24.8562
 11
49.9293
 21
24.7251
  0
LINE
  8
0
 10
49.9293
 20
24.7251
 11
50.7956
 21
24.5081
  0
LINE
  8
0
 10
50.7956
 20
24.5081
 11
51.6364
 21
24.2073
  0
LINE
  8
0
 10
51.6364
 20
24.2073
 11
52.4437
 21
23.8255
  0
LINE
  8
0
 10
52.4437
 20
23.8255
 11
53.2097
 21
23.3664
  0
LINE
  8
0
 10
53.2097
 20
23.3664
 11
53.927
 21
22.8344
  0
LINE
  8
0
 10
53.927
 20
22.8344
 11
54.5887
 21
22.2347
  0
LINE
  8
0
 10
54.5887
 20
22.2347
 11
55.1884
 21
21.573
  0
LINE
  8
0
 10
55.1884
 20
21.573
 11
55.7204
 21
20.8557
  0
LINE
  8
0
 10
55.7204
 20
20.8557
 11
56.1795
 21
20.0897
  0
LINE
  8
0
 10
56.1795
 20
20.0897
 11
56.5613
 21
19.2824
  0
LINE
  8
0
 10
56.5613
 20
19.2824
 11
56.8622
 21
18.4416
  0
LINE
  8
0
 10
56.8622
 20
18.4416
 11
57.0791
 21
17.5753
  0
LINE
  8
0
 10
57.0791
 20
17.5753
 11
57.2102
 21
16.692
  0
LINE
  8
0
 10
57.2102
 20
16.692
 11
57.254
 21
15.8
  0
LINE
  8
0
 10
57.254
 20
15.8
 11
57.2102
 21
14.908
  0
LINE
  8
0
 10
57.2102
 20
14.908
 11
57.0791
 21
14.0247
  0
LINE
  8
0
 10
57.0791
 20
14.0247
 11
56.8622
 21
13.1584
  0
LINE
  8
0
 10
56.8622
 20
13.1584
 11
56.5613
 21
12.3176
  0
LINE
  8
0
 10
56.5613
 20
12.3176
 11
56.1795
 21
11.5103
  0
LINE
  8
0
 10
56.1795
 20
11.5103
 11
55.7204
 21
10.7443
  0
LINE
  8
0
 10
55.7204
 20
10.7443
 11
55.1884
 21
10.027
  0
LINE
  8
0
 10
55.1884
 20
10.027
 11
54.5887
 21
9.36533
  0
LINE
  8
0
 10
54.5887
 20
9.36533
 11
53.927
 21
8.76559
  0
LINE
  8
0
 10
53.927
 20
8.76559
 11
53.2097
 21
8.23361
  0
LINE
  8
0
 10
53.2097
 20
8.23361
 11
52.4437
 21
7.77451
  0
LINE
  8
0
 10
52.4437
 20
7.77451
 11
51.6364
 21
7.39268
  0
LINE
  8
0
 10
51.6364
 20
7.39268
 11
50.7956
 21
7.09184
  0
LINE
  8
0
 10
50.7956
 20
7.09184
 11
49.9293
 21
6.87485
  0
LINE
  8
0
 10
49.9293
 20
6.87485
 11
49.0459
 21
6.7438
  0
LINE
  8
0
 10
49.0459
 20
6.7438
 11
48.154
 21
6.7
  0
LINE
  8
0
 10
48.154
 20
6.7
 11
47.262
 21
6.7438
  0
LINE
  8
0
 10
66.6
 20
5.79999
 11
66.6
 21
11.9
  0
LINE
  8
0
 10
66.6
 20
11.9
 11
79
 21
11.9
  0
LINE
  8
0
 10
79
 20
11.9
 11
79
 21
5.79999
  0
LINE
  8
0
 10
79
 20
5.79999
 11
66.6
 21
5.79999
  0
ENDSEC
  0
SECTION
  2
OBJECTS
  0
DICTIONARY
  0
ENDSEC
  0
EOF
